<?xml version="1.0" encoding="utf-8"?>
<!-- Generator: Adobe Illustrator 22.1.0, SVG Export Plug-In . SVG Version: 6.00 Build 0)  -->
<svg version="1.1" xmlns="http://www.w3.org/2000/svg" xmlns:xlink="http://www.w3.org/1999/xlink" x="0px" y="0px"
	 viewBox="0 0 2272 1872" style="enable-background:new 0 0 2272 1872;" xml:space="preserve">
<style type="text/css">
	.st0{fill:#CAE7FF;}
	.st1{fill:#83E2FF;}
	.st2{fill:#DCE7FD;}
	.st3{fill:#273941;}
	.st4{fill:#EF7C2E;}
	.st5{fill:none;}
	.st6{fill:#FFF0CA;}
	.st7{fill:#AA3971;}
	.st8{fill:#F69981;}
	.st9{fill:#BA7061;}
	.st10{fill:#6B3D44;}
	.st11{fill:#F269A8;}
	.st12{fill:#151F23;}
	.st13{fill:#FFD14E;}
	.st14{fill:none;stroke:#FFD14E;stroke-miterlimit:10;}
	.st15{fill:#822C5B;}
	.st16{fill:#D85E38;}
	.st17{fill:#8889C2;}
	.st18{fill:#FCD96A;}
	.st19{fill:#FFCCEA;}
	.st20{fill:#E5B3D3;}
	.st21{fill:#CE86B4;}
	.st22{fill:#FFEBF8;}
	.st23{fill:#FEC83D;}
	.st24{fill:#EC5946;}
	.st25{fill:#9B3930;}
	.st26{fill:#FFFFFF;}
</style>
<g id="Background">
	<ellipse class="st0" cx="1144" cy="1716" rx="876.3" ry="69.1"/>
	<g>
		<g>
			<circle class="st1" cx="1184.4" cy="805.2" r="640.7"/>
			<path class="st2" d="M1676.5,567.8c-2.1,3.1-2.4,7-2.6,10.7c-1,17.8-1.3,35.7-1.1,53.5c-15.4-7.7-36-3-46.6,10.6
				c-10.6,13.6-27.7,41.7-16.4,54.8c-15.9-8.2-37.2-3.9-48.6,9.9c-11.4,13.8-11.5,35.6-0.4,49.5c-20-5.3-42.2-7-60.5,2.5
				c-18.3,9.5-30.2,33.3-21.1,51.8c-35.8-8.2-73.1-9.4-109.3-3.6c-2.2-15.6,9.4-30.6,23.5-37.5c14.2-6.9,24.9-19.5,40.7-20
				c-13-18.4-35.1-29.9-57.6-30s-44.7,11.2-57.9,29.4c-2.1,2.9-4,6-7.1,7.8c-5,2.8-11.1,1.1-16.7,0c-23.2-4.7-48.4,2.1-66.1,17.8
				c-17.7,15.7-27.5,39.9-25.7,63.4c-20.1-12.4-45-18.9-67.8-12.4c-22.7,6.5-48.1,47.4-46.7,71c-25.4-17.2-65.6-3.6-75.3,25.5
				c-2.6,7.7-5.1,17.9-13.2,18.9c-4.1,0.5-8-1.9-11.5-4c-27-16.3-59.2-23.9-90.7-21.3c21-31,54.1-53.6,90.6-61.7
				c-32.5,0.1-70.9,7.5-103.4,7.6c-1.4,4-7.3,4.5-10.8,2.1s-5.4-6.5-7.9-10c-9-12.7-26.5-17.2-41.9-14.9s-29.4,10.2-42.9,18
				c-3-23.1-21.5-40.4-40.7-53.6c-3.5-18-7.3-36.9-19.4-50.6c-12.1-13.8-35.3-19.5-48.7-7.1c1.2-28.3-30.4-52.5-58.7-50.5
				c-10.1-25.3-20.6-51.2-39.2-71c-1.3-1.4-2.6-2.7-4-4c-21.6,71.6-30.9,148.2-25.7,227.2c23.4,353.1,328.5,620.4,681.6,597
				s620.4-328.5,597-681.6c-6.8-103.2-37.7-199-86.9-282.5c-24.3,24.6-39.8,58.1-41.3,92.8C1695.2,564.5,1681.4,560.6,1676.5,567.8z
				"/>
		</g>
	</g>
</g>
<g id="object">
	<g>
		<path class="st3" d="M585.4,1653.4c-3.4-8.4-9.7-19.5-19.8-20.3c-3.7-0.3-4.9,4.4-2.8,6.8c2.9,3.3,6,5.7,8.2,9.6
			c2,3.5,3.2,7.2,4.3,11c2.2,8.4,1.8,16.6,2.7,25.2c0.8,7.7,11,7.6,11.9,0C591,1675.4,589.2,1662.9,585.4,1653.4z"/>
		<path class="st4" d="M1250,638.1c0,0-79.9,23.1-126,73.5s-65.5,66.4-65.5,66.4l-89.2-0.9c0,0-129.9,67.5-91.9,177.7
			c38,110.2,104.3,91.5,188,36.7s127.7-183.8,127.7-183.8L1250,638.1z"/>
		<g>
			<path class="st5" d="M1111.2,783.5c-0.4,0.9-0.9,1.7-1.5,2.5c-0.8,1-1.7,2-2.7,2.8c0.9,1.8,2,3.7,3.7,4.8
				c1.8,1.3,4.4,1.6,5.8-0.4C1118.8,789.8,1114.7,785.9,1111.2,783.5z"/>
			<path class="st5" d="M1118.5,775.2c1.7-1,3.2-2.9,2.3-4.9c-1-2.3-4.4-1.5-6.2-0.9c-1.7,0.5-3.2,1.4-4.5,2.6
				c1.2,1.3,1.9,2.9,2.2,4.5C1114.4,776.4,1116.6,776.2,1118.5,775.2z"/>
			<path class="st5" d="M1105.7,768.9c1.3-1.9,2.6-3.9,3.3-6.1c0.5-1.6,1.7-6.6-0.7-7.3c-2.3-0.7-4.6,3.5-5.3,5
				c-0.6,1.4-1,2.9-1.2,4.4c0.1,0.9,0.1,1.8,0.1,2.6C1103.3,767.8,1104.6,768.3,1105.7,768.9z"/>
			<path class="st5" d="M1094.4,791.1c-0.5-0.2-0.9-0.4-1.4-0.6c-2.1,2.8-3.7,7.7,1.4,7.7c3.6,0,6-3.1,6.2-6.4
				C1098.6,792.1,1096.5,791.9,1094.4,791.1z"/>
			<path class="st5" d="M1131.5,716.8c1.8,1.3,4.4,1.6,5.8-0.4c2.4-3.5-1.7-7.3-5.3-9.7c-0.4,0.9-0.9,1.7-1.5,2.5
				c-0.8,1-1.7,2-2.7,2.8C1128.8,713.8,1129.9,715.7,1131.5,716.8z"/>
			<path class="st5" d="M1199.9,676.8c1.8,1.3,4.4,1.6,5.8-0.4c2.4-3.5-1.7-7.3-5.3-9.7c-0.4,0.9-0.9,1.7-1.5,2.5
				c-0.8,1-1.7,2-2.7,2.8C1197.1,673.8,1198.2,675.7,1199.9,676.8z"/>
			<path class="st5" d="M1086.7,777.1c0.1-0.6,0.3-1.2,0.5-1.8c-1.6-0.3-3.3-0.3-4.7,0.5c-1.5,0.9-1.9,2.6-1.6,4.3
				c0.6,3.2,4.1,6,7.3,5.5C1086.7,783.1,1086.1,780.1,1086.7,777.1z"/>
			<path class="st5" d="M1105.7,776.2c-1.1-1.4-3.1-2.1-4.8-2.6c-0.8-0.2-1.7-0.5-2.5-0.5c-0.4,0-6.5,5.2-6.2,7.1
				c0.6,4,4.7,6.8,8.7,5.4C1103.9,784.6,1108.2,779.4,1105.7,776.2z"/>
			<path class="st5" d="M1183.6,674.3c-0.5-0.2-0.9-0.4-1.4-0.6c-2.1,2.8-3.7,7.7,1.4,7.7c3.6,0,6-3.1,6.2-6.4
				C1187.8,675.3,1185.7,675.1,1183.6,674.3z"/>
			<path class="st5" d="M1096.9,767c0-0.4,0-0.9,0-1.3c-0.1-2.3-0.4-4.7-1.3-6.8c-0.8-1.7-3.1-4-4.4-1.5c-1.7,3.3-0.2,7.7,2,11.1
				C1094.2,767.6,1095.5,767.2,1096.9,767z"/>
			<path class="st6" d="M1103.3,800.3c0.8-0.9,1.4-2,1.9-3c1,0.9,2.1,1.7,3.4,2.3c4.1,1.9,8.8,1.2,11.8-2.3
				c4.7-5.5,1.7-11.5-2.8-15.9c1.9-0.5,3.7-1.4,5.3-2.8c2.9-2.6,4.2-6.7,2.6-10.4c-2.2-5.1-7.4-5.4-12.2-3.7
				c0.4-1.3,0.7-2.6,0.8-3.9c0.3-3.7-0.7-8.6-4.9-9.5c-3.9-0.8-7.2,2.3-9.2,5.2c-0.3-0.6-0.7-1.3-1.1-1.9c-2.6-3.6-7.7-5-11.2-1.8
				c-3.1,2.9-3.4,7.7-2.5,11.6c0.4,1.8,1.1,3.5,2,5c-2.5-0.7-5.2-0.4-7.8,0.9c-3.9,2-5.7,6.2-5.1,10.4c0.5,4,3.1,7.7,6.6,9.7
				c1.3,0.7,2.7,1.2,4,1.4c-0.5,1.6-0.8,3.2-0.6,4.9c0.4,4.6,4.3,7.6,8.7,8.1C1096.9,805,1100.9,803.3,1103.3,800.3z M1116.4,793.2
				c-1.4,2-3.9,1.7-5.8,0.4c-1.7-1.2-2.8-3-3.7-4.8c1-0.8,1.9-1.7,2.7-2.8c0.6-0.8,1.1-1.7,1.5-2.5
				C1114.7,785.9,1118.8,789.8,1116.4,793.2z M1114.6,769.3c1.8-0.6,5.2-1.4,6.2,0.9c0.9,2.1-0.6,4-2.3,4.9
				c-1.9,1.1-4.1,1.3-6.3,1.3c-0.3-1.6-1-3.2-2.2-4.5C1111.4,770.8,1112.9,769.9,1114.6,769.3z M1103,760.4c0.7-1.5,3-5.7,5.3-5
				c2.4,0.7,1.3,5.8,0.7,7.3c-0.7,2.2-2,4.2-3.3,6.1c-1.1-0.5-2.4-1-3.8-1.4c0-0.9-0.1-1.7-0.1-2.6
				C1102,763.3,1102.4,761.8,1103,760.4z M1080.8,780.2c-0.3-1.7,0-3.4,1.6-4.3c1.4-0.8,3.1-0.8,4.7-0.5c-0.2,0.6-0.4,1.1-0.5,1.8
				c-0.5,3,0,6,1.5,8.6C1084.9,786.2,1081.5,783.3,1080.8,780.2z M1091.2,757.4c1.3-2.5,3.6-0.2,4.4,1.5c0.9,2.1,1.2,4.5,1.3,6.8
				c0,0.4,0,0.9,0,1.3c-1.4,0.2-2.7,0.6-3.8,1.5C1091,765.2,1089.5,760.7,1091.2,757.4z M1094.4,798.2c-5,0-3.4-4.9-1.4-7.7
				c0.4,0.2,0.9,0.4,1.4,0.6c2.1,0.8,4.2,1,6.2,0.6C1100.4,795.1,1098,798.3,1094.4,798.2z M1092.2,780.2c-0.3-1.9,5.8-7.2,6.2-7.1
				c0.9,0.1,1.7,0.3,2.5,0.5c1.7,0.5,3.6,1.1,4.8,2.6c2.5,3.2-1.8,8.4-4.9,9.4C1096.9,787,1092.8,784.3,1092.2,780.2z"/>
			<path class="st6" d="M1124.2,723.5c0.8-0.9,1.4-2,1.9-3c1,0.9,2.1,1.7,3.4,2.3c4.1,1.9,8.8,1.2,11.8-2.3
				c4.7-5.5,1.7-11.5-2.8-15.9c1.9-0.5,3.7-1.4,5.3-2.8c2.9-2.6,4.2-6.7,2.6-10.4c0-0.1-0.1-0.2-0.2-0.3c-1.5,1.2-2.9,2.3-4.3,3.5
				c0,1.6-1.2,2.9-2.6,3.7c-0.9,0.5-1.9,0.8-2.9,1c-4.3,3.9-8.5,8-12.5,12.3c-1.1,1.2-2.1,2.3-3.1,3.4c0.2,0,0.4,0,0.6-0.1
				c-0.3,3.3-2.6,6.5-6.2,6.4c-0.1,0-0.2,0-0.2,0c-1.7,1.8-3.3,3.6-4.9,5.3c1.2,0.6,2.5,1,3.8,1.1
				C1117.7,728.2,1121.7,726.5,1124.2,723.5z M1130.5,709.2c0.6-0.8,1.1-1.7,1.5-2.5c3.5,2.4,7.7,6.2,5.3,9.7
				c-1.4,2-3.9,1.7-5.8,0.4c-1.7-1.2-2.8-3-3.7-4.8C1128.8,711.2,1129.7,710.3,1130.5,709.2z"/>
			<path class="st6" d="M1197.8,682.8c4.1,1.9,8.8,1.2,11.8-2.3c4.7-5.5,1.7-11.5-2.8-15.9c1.9-0.5,3.7-1.4,5.3-2.8
				c2.9-2.6,4.2-6.7,2.6-10.4c0-0.1,0-0.1-0.1-0.1c-1.5,0.7-3.1,1.4-4.7,2.1c0,0,0,0,0,0.1c0.9,2.1-0.6,4-2.3,4.9
				c-1.9,1.1-4.1,1.3-6.3,1.3c-0.1-0.7-0.3-1.3-0.6-2c-1.8,0.9-3.6,1.7-5.4,2.7c1.3,3.2-2.6,7.6-5.3,8.6c-2.7,0.9-5.4-0.1-7.1-2
				c-4,2.2-8,4.6-12.1,7.1c1.1,0.5,2.2,0.8,3.3,1c-0.5,1.6-0.8,3.2-0.6,4.9c0.4,4.6,4.3,7.6,8.7,8.1c3.8,0.4,7.8-1.3,10.3-4.3
				c0.8-0.9,1.4-2,1.9-3C1195.4,681.4,1196.5,682.2,1197.8,682.8z M1198.8,669.2c0.6-0.8,1.1-1.7,1.5-2.5c3.5,2.4,7.7,6.2,5.3,9.7
				c-1.4,2-3.9,1.7-5.8,0.4c-1.7-1.2-2.8-3-3.7-4.8C1197.2,671.2,1198,670.3,1198.8,669.2z M1183.6,681.4c-5,0-3.4-4.9-1.4-7.7
				c0.4,0.2,0.9,0.4,1.4,0.6c2.1,0.8,4.2,1,6.2,0.6C1189.6,678.3,1187.2,681.4,1183.6,681.4z"/>
		</g>
		<path class="st7" d="M1000.1,777.4l-20.5-140.6c0,0-140.2,207.8-102.2,318c38,110.2,104.3,91.5,188,36.7c1.7-1.1,3.3-2.2,5-3.4
			c-8.1-18.3-15-37.3-21.5-56.1C1031.1,881,1014.8,829.5,1000.1,777.4z"/>
		<path class="st8" d="M927.1,623.3c0,0,169.2,20,225.1-6.2l-110.4,368.7c-2.3,7.7-13.3,7.6-15.4-0.2L927.1,623.3z"/>
		<g>
			<path class="st5" d="M1025.2,823.3c6.8,6,13.5,12.1,20.2,18.2c6.7-6.1,13.4-12.2,20.3-18.2c-6.7-6.1-13.4-12.2-20.2-18.1
				C1038.7,811.2,1031.9,817.2,1025.2,823.3z"/>
			<path class="st5" d="M1066.3,670.3c-4,3.1-7.9,6.2-11.9,9.4c6.1,5.2,12.1,10.5,18.1,15.8c3.8-3.1,7.5-6.1,11.3-9.1
				C1078,680.9,1072.2,675.6,1066.3,670.3z"/>
			<path class="st5" d="M1065.9,655.8c5.5-4.3,11-8.5,16.5-12.6c-4.3-3.7-8.7-7.3-13.1-10.9c-5.2,4.2-10.4,8.5-15.6,12.8
				c3.4,2.9,6.7,5.9,10.1,8.9C1064.6,654.5,1065.3,655.2,1065.9,655.8z"/>
			<path class="st5" d="M1119.8,658.4c3.8-2.9,7.6-5.7,11.5-8.6c-5.4-5.1-10.9-10.1-16.4-15c-1.7,1.1-3.3,2.2-5,3.4
				c-3.5,2.4-6.9,4.8-10.4,7.3c5.7,5.1,11.3,10.3,16.9,15.5C1117.6,660.1,1118.7,659.2,1119.8,658.4z"/>
			<path class="st5" d="M1092,679.8c5.6-4.4,11.3-8.8,17-13.2c-5.7-5.2-11.5-10.4-17.3-15.5c-5.7,4.1-11.3,8.3-16.9,12.6
				C1080.6,669,1086.3,674.4,1092,679.8z"/>
			<path class="st5" d="M1034.6,663.2c3.7,3,7.3,5.9,10.9,9c3.1-2.6,6.2-5.1,9.3-7.6c0.9-0.7,1.7-1.4,2.6-2.1c-4-3.5-8-7-12-10.4
				c-4,3.4-8,6.9-11.9,10.3C1033.9,662.7,1034.3,662.9,1034.6,663.2z"/>
			<path class="st5" d="M1016.2,815.4c6.6-6.2,13.3-12.2,20-18.2c-4.3-3.6-8.5-7.3-12.9-10.9c-5,4.6-10.1,9.3-15,13.9
				c-1.5,1.4-3.1,2.9-4.6,4.4c1.3,1.1,2.7,2.3,4,3.4C1010.5,810.5,1013.4,812.9,1016.2,815.4z"/>
			<path class="st5" d="M1064.1,734c6.1-5,12.3-10,18.5-14.8c-3.1-2.8-6.2-5.6-9.3-8.4c-6.2,5-12.3,10.1-18.4,15.2
				C1058.1,728.7,1061.1,731.4,1064.1,734z"/>
			<path class="st5" d="M1101.2,688.7c3.2,3.1,6.4,6.3,9.6,9.4c4.1-2.9,8.2-5.8,12.4-8.7c1.9-1.3,3.9-2.7,5.9-4
				c-3.5-3.3-6.9-6.7-10.4-10C1112.7,679.8,1106.9,684.2,1101.2,688.7z"/>
			<path class="st5" d="M1016.4,831.5c-8.5,8-16.9,16-25.2,24.3c7.7,5.1,15.2,10.3,22.7,15.6c7.5-7.3,15.1-14.6,22.8-21.7
				C1030,843.6,1023.2,837.5,1016.4,831.5z"/>
			<path class="st5" d="M999.1,679.7c5.7-5.4,11.5-10.8,17.3-16.1c-5.6-4.3-11.2-8.5-16.9-12.6c-5.9,5.1-11.7,10.3-17.4,15.5
				C987.8,670.9,993.4,675.3,999.1,679.7z"/>
			<path class="st5" d="M1025.6,655.2c3.9-3.4,7.7-6.8,11.6-10.2c-5.1-4.3-10.3-8.6-15.5-12.8c-4.4,3.6-8.7,7.2-13,10.9
				c5.5,4.1,11,8.3,16.4,12.6C1025.3,655.5,1025.5,655.4,1025.6,655.2z"/>
			<path class="st5" d="M989.8,688.6c-5.7-4.5-11.5-8.9-17.3-13.3c-3.5,3.3-7,6.6-10.4,9.9c1.4,1,2.9,2,4.3,3
				c4.7,3.2,9.3,6.5,13.9,9.8C983.5,694.8,986.6,691.7,989.8,688.6z"/>
			<path class="st5" d="M1017.3,742.5c-6.1-5-12.2-9.9-18.4-14.7c-4.5,4.2-8.9,8.5-13.3,12.8c0.3,0.2,0.6,0.5,0.9,0.7
				c5.8,4.4,11.6,8.9,17.3,13.4C1008.4,750.6,1012.9,746.6,1017.3,742.5z"/>
			<path class="st5" d="M974.6,660.8c5.6-5.2,11.3-10.4,17-15.5c-4-2.8-8-5.7-12-8.5c-1.1-0.8-2.2-1.5-3.3-2.2
				c-0.1,0.1-0.3,0.3-0.4,0.4c-5.4,4.9-10.7,9.8-16,14.7c3.3,2.5,6.6,4.9,9.9,7.4C971.3,658.3,973,659.5,974.6,660.8z"/>
			<path class="st5" d="M1003.8,770.5c-6.6,5.9-13.1,11.8-19.6,17.8c3.4,2.7,6.8,5.5,10.2,8.4c6.3-6.2,12.8-12.3,19.2-18.3
				C1010.4,775.7,1007.1,773.1,1003.8,770.5z"/>
			<path class="st5" d="M1081.9,703.9c3.1,2.9,6.2,5.8,9.3,8.7c3.8-2.9,7.5-5.7,11.3-8.5c-3.1-3-6.3-6.1-9.4-9.1
				C1089.3,698,1085.6,701,1081.9,703.9z"/>
			<path class="st5" d="M979.3,713c-4.4,4.3-8.7,8.7-13,13.1c3.8,2.7,7.5,5.5,11.2,8.3c4.3-4.4,8.7-8.7,13.1-13
				C986.8,718.5,983.1,715.7,979.3,713z"/>
			<path class="st5" d="M1026.9,734c3-2.7,6.1-5.4,9.1-8c-6.1-5.1-12.2-10.2-18.4-15.2c-3.1,2.8-6.2,5.5-9.3,8.4
				c6,4.7,12,9.5,17.9,14.4C1026.5,733.7,1026.7,733.8,1026.9,734z"/>
			<path class="st5" d="M1022.9,769.9c4.3-3.9,8.7-7.9,13.1-11.8c-3.1-2.6-6.2-5.3-9.3-7.9c-4.5,3.9-9,7.9-13.4,11.8
				C1016.5,764.7,1019.7,767.3,1022.9,769.9z"/>
			<path class="st5" d="M988.6,704c3.8,2.8,7.6,5.7,11.3,8.5c3.1-2.9,6.2-5.8,9.3-8.6c-3.7-3-7.4-6-11.2-8.9
				C994.8,697.9,991.7,700.9,988.6,704z"/>
			<path class="st5" d="M1007.2,686.2c3.8,3,7.6,6.1,11.3,9.2c6-5.3,12-10.6,18.1-15.8c-3.9-3.2-7.9-6.3-11.9-9.4
				C1018.9,675.4,1013,680.8,1007.2,686.2z"/>
			<path class="st5" d="M1027.2,702.4c6.2,5.1,12.3,10.3,18.4,15.5c5.7-4.8,11.4-9.7,17.1-14.4c0.4-0.3,0.8-0.7,1.3-1
				c-6.1-5.3-12.2-10.5-18.4-15.6C1039.4,692,1033.2,697.1,1027.2,702.4z"/>
			<path class="st5" d="M1045.5,789c2.6-2.3,5.3-4.6,7.9-6.8c1.7-1.4,3.3-2.8,5-4.2c-4.3-3.9-8.6-7.7-13-11.5
				c-4.3,3.8-8.7,7.6-12.9,11.5c1.2,1,2.3,1.9,3.5,2.9C1039.2,783.6,1042.4,786.3,1045.5,789z"/>
			<path class="st5" d="M1045.5,749.7c3.1-2.6,6.1-5.3,9.2-7.9c-3.1-2.6-6.1-5.3-9.2-7.9c-3.1,2.6-6.2,5.2-9.2,7.9
				C1039.4,744.5,1042.5,747.1,1045.5,749.7z"/>
			<path class="st5" d="M1057.9,885.9c3.2-2.4,6.4-4.9,9.7-7.2c-7.3-7-14.7-14-22.1-20.9c-7.4,6.8-14.7,13.7-22,20.7
				c2.7,2,5.4,4,8.1,6.1c4.7,3.6,9.4,7.2,14,10.9C1049.7,892.3,1053.8,889,1057.9,885.9z"/>
			<path class="st5" d="M1055.1,758.2c4.4,3.9,8.7,7.8,13.1,11.8c3.2-2.6,6.4-5.2,9.7-7.8c-4.5-4-8.9-7.9-13.4-11.9
				C1061.3,752.9,1058.2,755.5,1055.1,758.2z"/>
			<path class="st5" d="M1073.7,742.6c4.5,4,9,8.1,13.4,12.2c5.2-4.1,10.5-8.2,15.8-12.2c0.8-0.6,1.6-1.2,2.5-1.9
				c-4.4-4.3-8.8-8.6-13.3-12.8C1085.9,732.8,1079.8,737.6,1073.7,742.6z"/>
			<path class="st5" d="M1054.8,797.2c6.7,6,13.4,12.1,20,18.2c2.3-2,4.7-4.1,7-6.1c1.8-1.6,3.6-3.1,5.4-4.7c-2-1.9-4-3.8-6.1-5.7
				c-4.5-4.2-9-8.4-13.5-12.6C1063.3,790,1059.1,793.6,1054.8,797.2z"/>
			<path class="st9" d="M1045.5,942.3c-6-5.2-12.1-10.2-18.3-15.2c6.1-5,12.2-9.9,18.3-14.8c4.9,3.9,9.8,7.9,14.7,11.9l4-13.3
				c-2.7-2.3-5.4-4.5-8.2-6.8c4.4-3.3,8.7-6.6,13.2-9.9l7-23.4c-7.3-7.1-14.6-14.1-22.1-21.1c6.7-6.1,13.5-12.1,20.4-18.1
				c3.5,3.3,7,6.6,10.4,9.9l3.8-12.7c-1.7-1.7-3.5-3.4-5.2-5c3-2.5,6-5,9-7.5l6.5-21.6c-0.9,0.7-1.7,1.4-2.6,2.1
				c-6.3-6.2-12.7-12.3-19.2-18.3c3.3-2.7,6.6-5.3,9.9-7.9c5,4.5,10,9.1,15,13.7l3.5-11.8c-3.1-3-6.3-6-9.4-9c2.7-2.1,5.3-4.1,8-6.2
				c2.5-1.9,5.1-3.8,7.7-5.7l6.1-20.4c-1.5,1.1-3.1,2.3-4.6,3.4c-4.3-4.4-8.7-8.7-13.1-13c3.7-2.8,7.5-5.6,11.3-8.4c3,3,6,6,9,9.1
				l3.2-10.6c-1.4-1.4-2.7-2.9-4.1-4.3c0.9-0.6,1.8-1.3,2.7-1.9c1.4-1,2.8-1.9,4.2-2.9l7.4-24.7c-2.7-2.7-5.4-5.3-8.1-8
				c4.5-3.3,9-6.6,13.5-9.9l6.2-20.7c-1.6,1.2-3.3,2.3-4.9,3.5c-5.2-5-10.5-9.9-15.8-14.8c2.2-1.5,4.5-2.9,6.7-4.3
				c-8.6,2-18.3,3.4-28.7,4.5c-4.2,3-8.4,6-12.6,9c-2.9-2.5-5.7-5-8.6-7.4c-9,0.5-18.2,0.7-27.5,0.7c-2.9,2.4-5.8,4.9-8.7,7.4
				c-2.9-2.5-5.9-5-8.8-7.5c-9.2-0.2-18.3-0.4-27.1-0.8c-2.9,2.5-5.9,5-8.8,7.5c-4-2.9-8-5.8-12-8.6c-8.7-0.5-16.8-1.1-24.2-1.7
				c0.5,0.4,1.1,0.7,1.7,1.1c-5.3,4.9-10.6,9.8-15.9,14.8c-3.2-2.3-6.5-4.7-9.7-7c-4.2-2.9-8.3-6-12.5-8.9l5.5,20
				c1.4,0.9,2.7,1.9,4,2.8c1.1,0.8,2.1,1.5,3.2,2.3c-1.5,1.5-3,3-4.6,4.5l3.4,12.3c3.5-3.4,7-6.7,10.5-10.1c5,3.6,10,7.3,15,11
				c-3.5,3.4-7,6.8-10.5,10.3c-4.8-3.3-9.6-6.5-14.6-9.6l7.9,28.7c1.6-1.6,3.2-3.2,4.7-4.7c4.8,3.2,9.6,6.5,14.3,9.8
				c1.4,1,2.8,2,4.2,3c-4.3,4.4-8.6,8.8-12.8,13.3c-1.9-1.3-3.8-2.5-5.7-3.8l5.4,19.6c3.4,2.5,6.9,4.9,10.3,7.4
				c-2.2,2.2-4.3,4.5-6.4,6.7l3.1,11.2c3.8-4,7.7-8,11.6-11.9c2.9,2.1,5.7,4.2,8.5,6.4c3.2,2.4,6.3,4.9,9.5,7.3
				c-6.4,6-12.8,12.2-19.1,18.3c-2.1-1.5-4.2-3-6.3-4.5l5.5,20.1c0.1-0.1,0.2-0.2,0.3-0.3c3.4,2.9,6.9,5.8,10.4,8.6
				c-2.2,2.2-4.4,4.4-6.6,6.6l3.5,12.9c4.1-4,8.2-7.9,12.3-11.9c3.8,3.1,7.6,6.3,11.3,9.5c0.4,0.4,0.8,0.7,1.2,1.1
				c-6.7,6.4-13.4,12.9-19.9,19.5l9,32.7c2.6,1.8,5.1,3.5,7.6,5.3c-1.6,1.6-3.2,3.2-4.9,4.9l3.5,12.9c3.6-3.6,7.3-7.3,11-10.9
				c7.2,5.2,14.3,10.6,21.4,16c-6,4.9-12,10-17.9,15c-3.7-2.9-7.4-5.7-11.2-8.5l7.7,28c1.5-1.3,3-2.6,4.5-3.8
				c6.4,4.9,12.7,9.9,18.9,15c-5.5,4.9-10.9,9.9-16.2,15l3.1,11.4c7.1-6.5,14.3-12.9,21.7-19.2c1.3,1.1,2.6,2.3,3.9,3.4l8.5-28.5
				C1053.8,935.3,1049.6,938.7,1045.5,942.3z M1045.5,841.6c-6.7-6.1-13.4-12.2-20.2-18.2c6.7-6.1,13.4-12.2,20.3-18.1
				c6.8,6,13.5,12,20.2,18.1C1058.9,829.4,1052.2,835.4,1045.5,841.6z M1072.5,695.4c-6-5.3-12-10.6-18.1-15.8
				c3.9-3.2,7.9-6.3,11.9-9.4c5.9,5.3,11.7,10.7,17.5,16.1C1080,689.3,1076.3,692.4,1072.5,695.4z M1073.4,710.8
				c3.1,2.8,6.2,5.6,9.3,8.4c-6.2,4.9-12.4,9.8-18.5,14.8c-3-2.7-6.1-5.4-9.1-8C1061.1,720.9,1067.2,715.8,1073.4,710.8z
				 M1063.9,702.4c-0.4,0.3-0.8,0.7-1.3,1c-5.8,4.8-11.5,9.6-17.1,14.4c-6.1-5.2-12.2-10.4-18.4-15.5c6.1-5.3,12.2-10.4,18.4-15.5
				C1051.7,692,1057.9,697.2,1063.9,702.4z M1054.7,741.9c-3.1,2.6-6.2,5.2-9.2,7.9c-3.1-2.6-6.1-5.3-9.2-7.9
				c3.1-2.6,6.1-5.3,9.2-7.9C1048.6,736.6,1051.7,739.2,1054.7,741.9z M1018.6,695.4c-3.8-3.1-7.5-6.1-11.3-9.2
				c5.8-5.4,11.7-10.8,17.6-16.1c4,3.1,7.9,6.3,11.9,9.4C1030.6,684.8,1024.5,690,1018.6,695.4z M1009.2,703.9
				c-3.1,2.9-6.2,5.7-9.3,8.6c-3.8-2.9-7.5-5.7-11.3-8.5c3.1-3,6.3-6,9.4-9C1001.7,697.9,1005.4,700.9,1009.2,703.9z M1017.7,710.7
				c6.2,5,12.3,10.1,18.4,15.2c-3.1,2.7-6.1,5.3-9.1,8c-0.2-0.2-0.4-0.3-0.6-0.5c-5.9-4.9-11.9-9.7-17.9-14.4
				C1011.5,716.3,1014.6,713.5,1017.7,710.7z M1026.7,750.2c3.1,2.6,6.2,5.2,9.3,7.9c-4.4,3.9-8.7,7.8-13.1,11.8
				c-3.2-2.6-6.4-5.2-9.6-7.8C1017.7,758.1,1022.2,754.2,1026.7,750.2z M1045.5,766.5c4.3,3.8,8.7,7.7,13,11.5
				c-1.7,1.4-3.3,2.8-5,4.2c-2.7,2.3-5.3,4.6-7.9,6.8c-3.1-2.7-6.3-5.5-9.5-8.2c-1.2-1-2.3-1.9-3.5-2.9
				C1036.9,774.1,1041.2,770.3,1045.5,766.5z M1081.2,798.9c2,1.9,4,3.8,6.1,5.7c-1.8,1.6-3.6,3.1-5.4,4.7c-2.3,2-4.7,4-7,6.1
				c-6.6-6.2-13.3-12.2-20-18.2c4.3-3.6,8.5-7.2,12.9-10.8C1072.2,790.5,1076.7,794.7,1081.2,798.9z M1068.2,770
				c-4.3-4-8.7-7.9-13.1-11.8c3.1-2.6,6.2-5.3,9.3-7.9c4.5,3.9,9,7.9,13.4,11.9C1074.6,764.7,1071.4,767.3,1068.2,770z
				 M1105.3,740.8c-0.8,0.6-1.6,1.2-2.5,1.9c-5.3,4-10.5,8.1-15.8,12.2c-4.4-4.1-8.9-8.2-13.4-12.2c6.1-4.9,12.2-9.8,18.3-14.6
				C1096.5,732.2,1101,736.4,1105.3,740.8z M1091.2,712.6c-3.1-2.9-6.2-5.8-9.3-8.7c3.7-3,7.4-6,11.2-8.9c3.2,3,6.3,6,9.4,9.1
				C1098.7,706.9,1094.9,709.8,1091.2,712.6z M1129,685.4c-2,1.4-3.9,2.7-5.9,4c-4.2,2.9-8.3,5.8-12.4,8.7c-3.2-3.2-6.4-6.3-9.6-9.4
				c5.8-4.5,11.5-8.9,17.4-13.3C1122.1,678.7,1125.5,682.1,1129,685.4z M1110,638.1c1.6-1.1,3.3-2.3,5-3.4c5.5,5,11,10,16.4,15
				c-3.8,2.8-7.7,5.7-11.5,8.6c-1.1,0.8-2.2,1.7-3.3,2.5c-5.6-5.2-11.2-10.4-16.9-15.5C1103,643,1106.5,640.6,1110,638.1z
				 M1091.7,651.1c5.8,5.1,11.6,10.3,17.3,15.5c-5.7,4.4-11.4,8.8-17,13.2c-5.7-5.4-11.4-10.8-17.2-16.1
				C1080.4,659.5,1086,655.3,1091.7,651.1z M1069.4,632.2c4.4,3.6,8.7,7.2,13.1,10.9c-5.5,4.1-11,8.4-16.5,12.6
				c-0.7-0.6-1.4-1.3-2.1-1.9c-3.3-3-6.7-5.9-10.1-8.9C1058.9,640.7,1064.1,636.5,1069.4,632.2z M1057.5,662.5
				c-0.9,0.7-1.7,1.4-2.6,2.1c-3.1,2.5-6.2,5.1-9.3,7.6c-3.6-3-7.3-6-10.9-9c-0.3-0.3-0.7-0.6-1-0.8c4-3.5,7.9-6.9,11.9-10.3
				C1049.5,655.5,1053.5,659,1057.5,662.5z M1021.8,632.2c5.2,4.2,10.4,8.5,15.5,12.8c-3.9,3.4-7.8,6.8-11.6,10.2
				c-0.2,0.2-0.3,0.3-0.5,0.5c-5.4-4.3-10.9-8.5-16.4-12.6C1013,639.4,1017.4,635.8,1021.8,632.2z M1016.3,663.6
				c-5.8,5.3-11.6,10.7-17.3,16.1c-5.6-4.4-11.3-8.8-17-13.2c5.7-5.2,11.5-10.4,17.4-15.5C1005.1,655.2,1010.8,659.4,1016.3,663.6z
				 M959.8,649.7c5.3-4.9,10.6-9.8,16-14.7c0.1-0.1,0.3-0.3,0.4-0.4c1.1,0.7,2.2,1.5,3.3,2.2c4,2.8,8,5.6,12,8.5
				c-5.7,5.1-11.4,10.3-17,15.5c-1.6-1.2-3.2-2.5-4.9-3.7C966.4,654.6,963.1,652.1,959.8,649.7z M966.4,688.1c-1.4-1-2.8-2-4.3-3
				c3.4-3.3,6.9-6.6,10.4-9.9c5.8,4.4,11.6,8.8,17.3,13.3c-3.2,3.1-6.4,6.2-9.5,9.4C975.7,694.6,971.1,691.3,966.4,688.1z
				 M977.4,734.3c-3.7-2.8-7.4-5.6-11.2-8.3c4.3-4.4,8.7-8.7,13-13.1c3.8,2.8,7.5,5.6,11.3,8.4C986.2,725.7,981.8,730,977.4,734.3z
				 M986.6,741.3c-0.3-0.2-0.6-0.5-0.9-0.7c4.4-4.3,8.8-8.5,13.3-12.8c6.2,4.8,12.3,9.7,18.4,14.7c-4.5,4-9,8.1-13.4,12.2
				C998.2,750.2,992.5,745.7,986.6,741.3z M994.4,796.7c-3.4-2.8-6.7-5.6-10.2-8.4c6.5-6,13-11.9,19.6-17.8c3.3,2.6,6.6,5.2,9.8,7.9
				C1007.2,784.4,1000.8,790.5,994.4,796.7z M1003.7,804.6c1.5-1.5,3.1-2.9,4.6-4.4c5-4.7,10-9.3,15-13.9c4.3,3.6,8.6,7.2,12.9,10.9
				c-6.8,6-13.4,12-20,18.2c-2.8-2.5-5.6-4.9-8.5-7.3C1006.4,806.9,1005,805.8,1003.7,804.6z M991.2,855.8
				c8.3-8.2,16.7-16.3,25.2-24.3c6.8,6,13.6,12,20.3,18.2c-7.7,7.2-15.3,14.4-22.8,21.7C1006.4,866.1,998.8,860.9,991.2,855.8z
				 M1031.6,884.6c-2.7-2.1-5.4-4.1-8.1-6.1c7.3-7,14.6-13.9,22-20.7c7.4,6.9,14.8,13.9,22.1,20.9c-3.2,2.4-6.5,4.8-9.7,7.2
				c-4.2,3.2-8.3,6.4-12.3,9.6C1041,891.8,1036.3,888.2,1031.6,884.6z"/>
		</g>
		<g>
			<g>
				<path class="st10" d="M1279.2,512.1c5.9-7.5,16.3-9.8,25.8-10.3c2.9-0.1,6-0.1,8.6,1.1c4.7,2.1,6.9,7.3,9.1,12
					c3.3,6.9,7.4,13.7,13.7,18.1c6.4,4.5,14.3,6,21.6,8.7c8,3,15.7,7.8,20.6,14.9c4.9,7.1,6.6,16.6,3,24.4
					c-3.5,7.5-11.2,12.2-15.1,19.5c-4.8,9-3.2,20.5-8.2,29.4c-6.1,10.9-22.5,14.2-32.3,6.5c-7.3-5.6-10.2-15.1-11.8-24.2
					c-1.8-10.2-2.3-22.3-9.2-30.6c-4.7-5.6-12-7.6-17.1-12.6C1275.9,557.3,1267.8,526.4,1279.2,512.1z"/>
				<path class="st11" d="M1302,559.8c0,0-25.5,55.3-11.7,56.6c13.8,1.3,22.8,5.3,22.8,5.3l-18.8,33.4l42.8,15.3l11-48.7l6.3-16.5
					c0,0,28.8,4.1,24.7-22c-4.1-26.1-18.4-7.6-24.7-2.7c-4.2,3.2-2.7,8.8-4.4,13.9c-3-2.3-6.6-3.7-10.3-4c-0.9-0.1-2.1-0.3-2.3-1.2
					c-0.1-0.5,0.1-1,0.4-1.4c3.4-6.7,4.6-14.5,3.3-22c-8.3,2.7-17-2.9-25.8-3c-3.2-0.1-6.8,0.5-9.4-1.3
					C1304.2,560.3,1303.8,558.7,1302,559.8z"/>
			</g>
			<path class="st11" d="M1464.2,667.1c0,0-136.2-44.5-214.2-29c0,0-145.6,231-204.7,391.9l-201.1,270.6c0,0,188.7,94.3,281.4,89.7
				l174.7-199.5c0,0,137.6-98.1,163.9-178.1V667.1z"/>
			<path class="st7" d="M1353.6,771.1c-6.8-0.9-13.9,0-20.8-0.5c-6.6-0.5-13.2-1.8-19.2-4.6c-11.5-5.5-20.9-13.4-34-15.2
				c-13.1-1.8-25.7,1.6-38.7,2.9c-11.3,1.1-23.8,2-33.4-5.3c-3-2.3-6.5,2.6-3.9,5.1c8.3,8.2,19.6,11.9,31.2,12
				c13.8,0.2,27.3-4.3,41.2-3.2c14,1.1,24.2,11.4,36.8,16.2c12.5,4.7,29,5.9,42.1,3.1C1361.5,780.4,1359.1,771.8,1353.6,771.1z"/>
			<path class="st7" d="M1299.5,800.3c-6.8-9.8-14.2-18.8-26.1-22.1c-11.2-3.1-23.1-1.2-34,2c-5.3,1.5-3,9.2,2.2,8.1
				c8.9-1.8,18.7-3.4,27.7-1.1c10,2.5,15.9,10.2,21.5,18.2C1294.4,810.8,1303.2,805.7,1299.5,800.3z"/>
			<polygon class="st3" points="534.1,1646.9 529.9,1666.8 677.1,1737 680.8,1697 			"/>
			<path class="st11" d="M889.2,1283.5c0,0-122.1,190.1-202.8,357.1H568.9c0,0-15-16.1-25.3-12.7c-10.4,3.5-17.3,18.4,0,28.8
				l95.6,30c0,0,27.6,27.6,43.8,20.7s28.1-41.5,28.1-41.5s193.1-35.7,223-148.6s141.7-178.6,141.7-178.6S957.2,1239.7,889.2,1283.5z
				"/>
			<path class="st7" d="M1075.8,1338.8c0,0-118.7-99.1-186.6-55.3c0,0-11.4,17.8-29.6,47.2c23.8,15.4,46.7,32.2,71.1,46.7
				c20.6,12.2,42.6,22.8,65.7,28.9C1035.2,1362.6,1075.8,1338.8,1075.8,1338.8z"/>
			<path class="st7" d="M1311.2,1378.4c-2.2,5.6,34.4,113.7,59.1,120.8c24.7,7.1,229.3,115.1,229.3,115.1l-29.8,48l-34.1,11.7
				c0,0-24.4-14.2-27.8,11.4l11.8,11.8h72.9l78.1-50.2c0,0,22.7-17,0-58.2c-22.7-41.2-61.1-136.4-108-164.8
				c-46.9-28.4-62-51.1-89-135S1329.6,1331.5,1311.2,1378.4z"/>
			<path class="st12" d="M1199.1,1246.1l91.5,160.2c0,0,151.3-30.9,217.2-141.9l-112-239.1C1395.8,1025.3,1227.2,1168,1199.1,1246.1
				z"/>
			<path class="st3" d="M1149.1,1018.5c-29.3-9.3-58.4-20.8-84.5-36.9c-7.1,16.6-13.6,32.8-19.3,48.3l-201.1,270.6
				c0,0,188.7,94.3,281.4,89.7l174.7-199.5c0,0,100.3-71.5,146-142.3C1346.6,1059.1,1244.7,1049,1149.1,1018.5z"/>
			<path class="st12" d="M1045.3,1030C1045.3,1030,1045.3,1030,1045.3,1030l-9.1,12.2c26.3,52.2,59.9,100.8,99.6,143.7
				c2.8,3.1,5.9,6.2,9.9,7.4c3.9,1.2,8.2,0.3,12.2-0.7c53.9-12.6,106.7-30.4,157.3-52.9c32.1-14.3,63.3-30.5,95-45.5
				c5.9-6.4,11.5-12.9,16.9-19.5c-116.4,49.7-252.6,79.5-252.6,79.5C1118.8,1125.5,1076.8,1080.2,1045.3,1030z"/>
			<path class="st13" d="M1100.6,981.1c37.5-98.6,169.8-295.4,204.2-345.8c-19.7-1.1-38.6-0.4-54.9,2.8c0,0-112.5,178.5-179.9,330.9
				l14.5,51.6L1100.6,981.1z"/>
			<g>
				<path class="st5" d="M1244.2,701.7c0.1-0.6,0.3-1.2,0.5-1.8c-1.6-0.3-3.3-0.3-4.7,0.5c-1.5,0.9-1.9,2.6-1.6,4.3
					c0.6,3.2,4.1,6,7.3,5.5C1244.3,707.7,1243.7,704.7,1244.2,701.7z"/>
				<path class="st5" d="M1198,743.8c1.8,1.3,4.4,1.6,5.8-0.4c2.4-3.5-1.7-7.3-5.3-9.7c-0.4,0.9-0.9,1.7-1.5,2.5
					c-0.8,1-1.7,2-2.7,2.8C1195.2,740.8,1196.3,742.6,1198,743.8z"/>
				<path class="st5" d="M1265.9,680c-2.3-0.7-4.6,3.5-5.3,5c-0.6,1.4-1,2.9-1.2,4.4c0.1,0.9,0.1,1.8,0.1,2.6
					c1.3,0.3,2.6,0.8,3.8,1.4c1.3-1.9,2.6-3.9,3.3-6.1C1267.1,685.8,1268.3,680.7,1265.9,680z"/>
				<path class="st5" d="M1190.9,789.8c0.1-0.6,0.3-1.2,0.5-1.8c-1.6-0.3-3.3-0.3-4.7,0.5c-1.5,0.9-1.9,2.6-1.6,4.3
					c0.6,3.2,4.1,6,7.3,5.5C1190.9,795.8,1190.4,792.8,1190.9,789.8z"/>
				<path class="st5" d="M1195.4,770.1c-1.7,3.3-0.2,7.8,2,11.1c1-0.8,2.3-1.3,3.8-1.5c0-0.4,0-0.9,0-1.3c-0.1-2.3-0.4-4.7-1.3-6.8
					C1199.1,769.9,1196.7,767.6,1195.4,770.1z"/>
				<path class="st5" d="M1248.8,682c-1.7,3.3-0.2,7.8,2,11.1c1-0.8,2.3-1.3,3.8-1.5c0-0.4,0-0.9,0-1.3c-0.1-2.3-0.4-4.7-1.3-6.8
					C1252.4,681.8,1250,679.5,1248.8,682z"/>
				<path class="st6" d="M1247,662.1c5.5,0.5,11.2-1.9,14.7-6.1c1.1-1.3,2-2.8,2.7-4.3c1.4,1.3,3,2.5,4.9,3.3
					c5.9,2.6,12.6,1.8,16.9-3.2c4.8-5.6,4-11.6,0.7-16.9c-3.4,0-6.8,0.1-10.1,0.2c3.5,3.2,6.1,7.1,3.6,10.8c-2,2.9-5.6,2.4-8.2,0.6
					c-2.4-1.7-3.9-4.3-5.3-6.9c1.4-1.1,2.7-2.5,3.8-4c0.1-0.1,0.1-0.2,0.2-0.2c-7.3,0.5-14.2,1.4-20.8,2.7c0,0-0.9,1.4-2.6,4.1
					c0.5,0.2,1,0.5,1.5,0.7c3,1.1,6,1.4,8.9,0.9c-0.4,4.7-3.7,9.2-8.9,9.2c-4.6,0-5.3-3-4.4-6.1c-1.8,3-4.1,6.6-6.7,11
					C1240.1,660.3,1243.4,661.8,1247,662.1z"/>
				<path class="st6" d="M1266.8,675.7c-3.9-0.8-7.2,2.3-9.2,5.2c-0.3-0.6-0.7-1.3-1.1-1.9c-2.6-3.6-7.7-5-11.2-1.8
					c-3.1,2.9-3.4,7.7-2.5,11.6c0.4,1.8,1.1,3.5,2,5c-2.5-0.7-5.2-0.4-7.8,0.9c-3.9,2-5.7,6.2-5.1,10.4c0.5,4,3.1,7.7,6.6,9.7
					c1.3,0.7,2.7,1.2,4,1.4c-0.5,1.6-0.8,3.2-0.6,4.9c0.2,2.1,1.1,3.9,2.5,5.2c1.4-2.2,2.9-4.4,4.3-6.6c0.1-1.5,1-3.3,2-4.7
					c0.3,0.1,0.5,0.3,0.8,0.4c1.1-1.7,2.2-3.4,3.3-5.1c-2.5-0.6-4.6-2.8-5-5.6c-0.3-1.9,5.8-7.2,6.2-7.1c0.9,0.1,1.7,0.3,2.5,0.5
					c1.1,0.3,2.3,0.7,3.3,1.3c3.4-5.2,6.7-10.2,9.9-15C1271.9,681,1270.7,676.5,1266.8,675.7z M1238.4,704.8c-0.3-1.7,0-3.4,1.6-4.3
					c1.4-0.8,3.1-0.8,4.7-0.5c-0.2,0.6-0.4,1.1-0.5,1.8c-0.5,3,0,6,1.5,8.6C1242.5,710.8,1239,708,1238.4,704.8z M1254.5,691.6
					c-1.4,0.2-2.7,0.6-3.8,1.5c-2.2-3.3-3.6-7.7-2-11.1c1.3-2.5,3.6-0.2,4.4,1.5c0.9,2.1,1.2,4.5,1.3,6.8
					C1254.5,690.8,1254.5,691.2,1254.5,691.6z M1266.6,687.4c-0.7,2.2-2,4.2-3.3,6.1c-1.1-0.5-2.4-1-3.8-1.4c0-0.9-0.1-1.7-0.1-2.6
					c0.1-1.5,0.5-3.1,1.2-4.4c0.7-1.5,3-5.7,5.3-5C1268.3,680.7,1267.1,685.8,1266.6,687.4z"/>
				<path class="st6" d="M1190.6,750.4c0.8-0.9,1.4-2,1.9-3c1,0.9,2.1,1.7,3.4,2.3c4.1,1.9,8.8,1.2,11.8-2.3
					c4.7-5.5,1.7-11.5-2.8-15.9c1.9-0.5,3.7-1.4,5.3-2.8c2.9-2.6,4.2-6.7,2.6-10.4c-1.7-3.8-5-4.9-8.6-4.5c-1.2,2-2.4,4-3.6,6.1
					c0.4-0.2,0.8-0.3,1.2-0.4c1.8-0.6,5.2-1.4,6.2,0.9c0.9,2.1-0.6,4-2.3,4.9c-1.9,1.1-4.1,1.3-6.3,1.3c-0.2-1-0.5-1.9-1-2.8
					c-3.4,5.9-6.9,11.9-10.6,18.2c0,0,0,0,0,0c-0.2,2.3-1.3,4.5-3.2,5.6c-1.4,2.4-2.7,4.8-4.1,7.2
					C1184.3,755,1188.2,753.3,1190.6,750.4z M1196.9,736.1c0.6-0.8,1.1-1.7,1.5-2.5c3.5,2.4,7.7,6.2,5.3,9.7c-1.4,2-3.9,1.7-5.8,0.4
					c-1.7-1.2-2.8-3-3.7-4.8C1195.2,738.1,1196.1,737.2,1196.9,736.1z"/>
				<path class="st6" d="M1213.4,763.8c-3.9-0.8-7.2,2.3-9.2,5.2c-0.3-0.6-0.7-1.3-1.1-1.9c-2.6-3.6-7.7-5-11.2-1.8
					c-3.1,2.9-3.4,7.7-2.5,11.6c0.4,1.8,1.1,3.5,2,5c-2.5-0.7-5.2-0.4-7.8,0.9c-3.9,2-5.7,6.2-5.1,10.4c0.5,4,3.1,7.7,6.6,9.7
					c1.3,0.7,2.7,1.2,4,1.4c-0.5,1.6-0.8,3.2-0.6,4.9c0.1,1.4,0.6,2.7,1.3,3.8c3.2-5.2,6.3-10.4,9.5-15.5c-1.5-1-2.6-2.7-2.9-4.6
					c-0.3-1.9,5.8-7.2,6.2-7.1c0.9,0.1,1.7,0.3,2.5,0.5c0.3,0.1,0.6,0.2,0.9,0.3c1.1-1.8,2.2-3.5,3.3-5.3c-1-0.4-2.1-0.8-3.2-1.1
					c0-0.9-0.1-1.7-0.1-2.6c0.1-1.5,0.5-3.1,1.2-4.4c0.7-1.5,3-5.7,5.3-5c2.2,0.7,1.5,4.8,0.9,6.8c1.4-2.3,2.9-4.6,4.3-6.9
					C1217.1,766,1215.7,764.3,1213.4,763.8z M1185.1,792.9c-0.3-1.7,0-3.4,1.6-4.3c1.4-0.8,3.1-0.8,4.7-0.5
					c-0.2,0.6-0.4,1.1-0.5,1.8c-0.5,3,0,6,1.5,8.6C1189.1,798.9,1185.7,796,1185.1,792.9z M1201.1,779.7c-1.4,0.2-2.7,0.6-3.8,1.5
					c-2.2-3.3-3.6-7.7-2-11.1c1.3-2.5,3.6-0.2,4.4,1.5c0.9,2.1,1.2,4.5,1.3,6.8C1201.1,778.9,1201.1,779.3,1201.1,779.7z"/>
			</g>
			<path class="st13" d="M1464.2,1012.6V667.1c0,0-60.2-19.6-123.4-28.3c-10,63.3-40.5,306.9,46.7,478.7
				C1420.5,1085.4,1452.8,1047.3,1464.2,1012.6z"/>
			<g>
				<path class="st5" d="M1389.6,834.4c-0.6-0.2-1.1-0.5-1.6-0.7c-2.5,3.3-4.4,9.2,1.6,9.3c4.4,0,7.2-3.8,7.5-7.7
					C1394.7,835.6,1392.2,835.4,1389.6,834.4z"/>
				<path class="st5" d="M1392.6,805.4c0-0.5,0-1,0-1.6c-0.2-2.8-0.5-5.7-1.6-8.2c-0.9-2.1-3.7-4.8-5.3-1.8c-2,4-0.3,9.3,2.4,13.3
					C1389.4,806.2,1390.9,805.6,1392.6,805.4z"/>
				<path class="st5" d="M1361.3,777.4c-0.5,1.1-1.1,2.1-1.8,3c-0.9,1.3-2,2.4-3.2,3.3c1.1,2.2,2.4,4.4,4.4,5.8
					c2.2,1.5,5.3,1.9,6.9-0.5C1370.5,784.9,1365.6,780.3,1361.3,777.4z"/>
				<path class="st5" d="M1380.3,817.5c0.1-0.7,0.3-1.4,0.6-2.1c-2-0.3-4-0.4-5.7,0.6c-1.9,1.1-2.3,3.2-1.9,5.2
					c0.8,3.8,4.9,7.3,8.7,6.6C1380.4,824.7,1379.7,821.1,1380.3,817.5z"/>
				<path class="st5" d="M1341.2,786.6c-0.6-0.2-1.1-0.5-1.6-0.7c-2.5,3.3-4.4,9.2,1.6,9.3c4.4,0,7.2-3.8,7.5-7.7
					C1346.3,787.7,1343.7,787.5,1341.2,786.6z"/>
				<path class="st5" d="M1403.2,816.5c-1.3-1.7-3.7-2.5-5.7-3.1c-1-0.3-2-0.6-3.1-0.7c-0.5,0-7.8,6.2-7.5,8.6
					c0.8,4.8,5.6,8.1,10.4,6.5C1401,826.6,1406.2,820.3,1403.2,816.5z"/>
				<path class="st5" d="M1403.2,807.6c1.6-2.3,3.1-4.7,4-7.3c0.6-1.9,2.1-7.9-0.9-8.8c-2.7-0.8-5.5,4.2-6.4,6
					c-0.8,1.7-1.2,3.5-1.4,5.3c0.1,1.1,0.1,2.1,0.1,3.2C1400.3,806.4,1401.9,807,1403.2,807.6z"/>
				<path class="st5" d="M1418.5,815.2c2.1-1.2,3.9-3.5,2.8-5.9c-1.2-2.7-5.2-1.8-7.5-1.1c-2.1,0.6-3.9,1.7-5.5,3.1
					c1.4,1.6,2.3,3.5,2.6,5.4C1413.6,816.7,1416.3,816.5,1418.5,815.2z"/>
				<path class="st5" d="M1354.7,646.9c-1.3-0.4-2.7-0.8-4.1-0.9c-0.6-0.1-10.5,8.4-10,11.5c1,6.5,7.6,10.9,14,8.8
					c4.9-1.7,11.9-10,7.8-15.2C1360.6,648.8,1357.4,647.7,1354.7,646.9z"/>
				<path class="st5" d="M1371.2,662.9c-0.7,1.4-1.5,2.8-2.5,4.1c-1.3,1.7-2.7,3.2-4.3,4.5c1.5,3,3.3,5.9,5.9,7.8
					c2.9,2.1,7.1,2.6,9.3-0.7C1383.5,672.9,1376.9,666.7,1371.2,662.9z"/>
				<path class="st5" d="M1409.8,825.2c-0.5,1.1-1.1,2.1-1.8,3c-0.9,1.3-2,2.4-3.2,3.3c1.1,2.2,2.4,4.4,4.4,5.8
					c2.2,1.5,5.3,1.9,6.9-0.5C1419,832.7,1414,828.1,1409.8,825.2z"/>
				<path class="st5" d="M1370.1,767.4c2.1-1.2,3.9-3.5,2.8-5.9c-1.2-2.7-5.2-1.8-7.5-1.1c-2.1,0.6-3.9,1.7-5.5,3.1
					c1.4,1.6,2.3,3.5,2.6,5.4C1365.2,768.9,1367.9,768.7,1370.1,767.4z"/>
				<path class="st5" d="M1411,702.5c0-0.5,0-1,0-1.6c-0.2-2.8-0.5-5.7-1.6-8.2c-0.9-2.1-3.7-4.8-5.3-1.8c-2,4-0.3,9.3,2.4,13.3
					C1407.7,703.2,1409.2,702.7,1411,702.5z"/>
				<path class="st5" d="M1407.9,731.4c-0.6-0.2-1.1-0.5-1.6-0.7c-2.5,3.3-4.4,9.2,1.6,9.3c4.4,0,7.2-3.8,7.5-7.7
					C1413,732.6,1410.5,732.4,1407.9,731.4z"/>
				<path class="st5" d="M1398.6,714.6c0.1-0.7,0.3-1.4,0.6-2.1c-2-0.3-4-0.4-5.7,0.6c-1.9,1.1-2.3,3.2-1.9,5.2
					c0.8,3.8,4.9,7.3,8.7,6.6C1398.7,721.8,1398,718.1,1398.6,714.6z"/>
				<path class="st5" d="M1432.2,705.2c-2.1,0.6-3.9,1.7-5.5,3.1c1.4,1.6,2.3,3.5,2.6,5.4c2.6,0,5.3-0.2,7.5-1.5
					c2.1-1.2,3.9-3.5,2.8-5.9C1438.4,703.6,1434.4,704.6,1432.2,705.2z"/>
				<path class="st5" d="M1415.8,710.4c-1-0.3-2-0.6-3.1-0.7c-0.5,0-7.8,6.2-7.5,8.6c0.8,4.8,5.6,8.1,10.4,6.5
					c3.7-1.2,8.9-7.5,5.8-11.3C1420.2,711.8,1417.8,711,1415.8,710.4z"/>
				<path class="st5" d="M1421.5,704.7c1.6-2.3,3.1-4.7,4-7.3c0.6-1.9,2.1-7.9-0.9-8.8c-2.7-0.8-5.5,4.2-6.4,6
					c-0.8,1.7-1.2,3.5-1.4,5.3c0.1,1.1,0.1,2.1,0.1,3.2C1418.6,703.4,1420.2,704,1421.5,704.7z"/>
				<path class="st5" d="M1428.1,722.3c-0.5,1.1-1.1,2.1-1.8,3c-0.9,1.3-2,2.4-3.2,3.3c1.1,2.2,2.4,4.4,4.4,5.8
					c2.2,1.5,5.3,1.9,6.9-0.5C1437.3,729.8,1432.3,725.1,1428.1,722.3z"/>
				<path class="st5" d="M1338.5,773.4c0.8,4.8,5.6,8.1,10.4,6.5c3.7-1.2,8.9-7.5,5.8-11.3c-1.3-1.7-3.7-2.5-5.7-3.1
					c-1-0.3-2-0.6-3.1-0.7C1345.6,764.8,1338.2,771.1,1338.5,773.4z"/>
				<path class="st5" d="M1354.8,759.8c1.6-2.3,3.1-4.7,4-7.3c0.6-1.9,2.1-7.9-0.9-8.8c-2.7-0.8-5.5,4.2-6.4,6
					c-0.8,1.7-1.2,3.5-1.4,5.3c0.1,1.1,0.1,2.1,0.1,3.2C1351.9,758.6,1353.4,759.1,1354.8,759.8z"/>
				<path class="st5" d="M1344.1,675.2c-0.8-0.3-1.5-0.6-2.2-1c-3.3,4.5-5.9,12.4,2.2,12.4c5.9,0,9.6-5.1,10-10.4
					C1350.9,676.7,1347.5,676.4,1344.1,675.2z"/>
				<path class="st5" d="M1344.2,757.6c0-0.5,0-1,0-1.6c-0.2-2.8-0.5-5.7-1.6-8.2c-0.9-2.1-3.7-4.8-5.3-1.8c-2,4-0.3,9.3,2.4,13.3
					C1340.9,758.3,1342.5,757.8,1344.2,757.6z"/>
				<path class="st6" d="M1382.9,649.4c-3,1.7-6.6,2-10.1,2c-0.5-2.6-1.6-5.1-3.5-7.3c0.2-0.2,0.5-0.4,0.7-0.6
					c-9.5-1.8-19.4-3.4-29.3-4.7c-1.9,12.2-4.6,31.2-7.1,55.1c2.4,1.7,5.2,2.7,8.3,3c6.2,0.6,12.6-2.1,16.6-6.9
					c1.3-1.5,2.3-3.2,3-4.9c1.6,1.5,3.4,2.8,5.5,3.7c6.6,3,14.3,2,19.1-3.7c7.6-8.8,2.8-18.6-4.5-25.6c3.1-0.9,5.9-2.3,8.5-4.6
					c2-1.8,3.5-4,4.4-6.4c-2.8-0.6-5.6-1.2-8.5-1.8C1385.2,647.8,1384.1,648.7,1382.9,649.4z M1344.1,686.6c-8.1,0-5.5-7.9-2.2-12.4
					c0.7,0.4,1.4,0.7,2.2,1c3.4,1.3,6.8,1.6,10,1C1353.7,681.5,1350,686.6,1344.1,686.6z M1354.5,666.3c-6.4,2.2-12.9-2.3-14-8.8
					c-0.5-3.1,9.4-11.6,10-11.5c1.4,0.1,2.8,0.5,4.1,0.9c2.7,0.8,5.9,1.8,7.7,4.1C1366.4,656.2,1359.5,664.6,1354.5,666.3z
					 M1379.7,678.5c-2.2,3.3-6.4,2.8-9.3,0.7c-2.7-1.9-4.5-4.8-5.9-7.8c1.6-1.3,3-2.8,4.3-4.5c1-1.3,1.8-2.7,2.5-4.1
					C1376.9,666.7,1383.5,672.9,1379.7,678.5z"/>
				<path class="st6" d="M1430.7,699.5c0.5-1.5,0.9-3.1,1-4.7c0.4-4.4-0.9-10.4-5.9-11.5c-4.7-1-8.6,2.7-11.1,6.3
					c-0.4-0.8-0.8-1.5-1.3-2.2c-3.1-4.4-9.3-6.1-13.5-2.2c-3.8,3.5-4,9.2-3,14c0.5,2.2,1.3,4.2,2.4,6c-3-0.8-6.3-0.5-9.3,1.1
					c-4.7,2.4-6.8,7.5-6.2,12.5c0.7,4.9,3.7,9.3,8,11.7c1.6,0.9,3.2,1.4,4.8,1.7c-0.7,1.9-0.9,3.9-0.8,5.8c0.5,5.6,5.2,9.2,10.5,9.7
					c4.6,0.5,9.4-1.6,12.4-5.1c0.9-1.1,1.7-2.4,2.3-3.7c1.2,1.1,2.5,2.1,4.1,2.8c4.9,2.2,10.6,1.5,14.2-2.7
					c5.6-6.6,2.1-13.8-3.4-19.1c2.3-0.7,4.4-1.7,6.3-3.4c3.5-3.1,5-8.1,3.1-12.5C1442.7,697.8,1436.4,697.5,1430.7,699.5z
					 M1418.3,694.5c0.9-1.8,3.7-6.9,6.4-6c2.9,0.9,1.5,6.9,0.9,8.8c-0.9,2.6-2.4,5-4,7.3c-1.4-0.7-2.9-1.2-4.5-1.6
					c0-1-0.1-2.1-0.1-3.2C1417.1,698,1417.5,696.2,1418.3,694.5z M1391.6,718.2c-0.4-2,0-4.1,1.9-5.2c1.6-1,3.7-0.9,5.7-0.6
					c-0.2,0.7-0.4,1.4-0.6,2.1c-0.6,3.6,0,7.2,1.7,10.3C1396.5,725.5,1392.4,722.1,1391.6,718.2z M1404.1,690.9
					c1.5-3,4.4-0.3,5.3,1.8c1.1,2.5,1.4,5.4,1.6,8.2c0,0.5,0,1,0,1.6c-1.7,0.2-3.3,0.7-4.5,1.7
					C1403.8,700.2,1402.1,694.9,1404.1,690.9z M1407.9,740c-6,0-4.1-5.9-1.6-9.3c0.5,0.3,1.1,0.5,1.6,0.7c2.5,1,5.1,1.2,7.5,0.8
					C1415.1,736.2,1412.3,740,1407.9,740z M1415.7,724.8c-4.8,1.6-9.6-1.7-10.4-6.5c-0.4-2.3,7-8.6,7.5-8.6c1,0.1,2.1,0.4,3.1,0.7
					c2,0.6,4.4,1.4,5.7,3.1C1424.6,717.4,1419.4,723.6,1415.7,724.8z M1434.4,734c-1.7,2.4-4.7,2.1-6.9,0.5c-2-1.4-3.3-3.6-4.4-5.8
					c1.2-1,2.2-2.1,3.2-3.3c0.7-1,1.3-2,1.8-3C1432.3,725.1,1437.3,729.8,1434.4,734z M1436.8,712.3c-2.2,1.3-4.9,1.5-7.5,1.5
					c-0.4-1.9-1.2-3.8-2.6-5.4c1.6-1.4,3.4-2.5,5.5-3.1c2.2-0.7,6.3-1.7,7.5,1.1C1440.7,708.8,1438.9,711.1,1436.8,712.3z"/>
				<path class="st6" d="M1329.1,793.1c0.5,5.6,5.2,9.2,10.5,9.7c4.6,0.5,9.4-1.6,12.4-5.1c0.9-1.1,1.7-2.4,2.3-3.7
					c1.2,1.1,2.5,2.1,4.1,2.8c4.9,2.2,10.6,1.5,14.2-2.7c5.6-6.6,2.1-13.8-3.4-19.1c2.3-0.7,4.4-1.7,6.3-3.4c3.5-3.1,5-8.1,3.1-12.5
					c-2.6-6.2-8.9-6.5-14.7-4.4c0.5-1.5,0.9-3.1,1-4.7c0.4-4.4-0.9-10.4-5.9-11.5c-4.7-1-8.6,2.7-11.1,6.3c-0.4-0.8-0.8-1.5-1.3-2.2
					c-3.1-4.4-9.3-6.1-13.5-2.2c-3.8,3.5-4,9.2-3,14c0.5,2.2,1.3,4.2,2.4,6c-1.2-0.3-2.5-0.5-3.8-0.4c-0.1,2.5-0.2,5.1-0.3,7.7
					c1.3-0.3,2.7-0.2,4.1,0c-0.2,0.7-0.4,1.4-0.6,2.1c-0.6,3.6,0,7.2,1.7,10.3c-2,0.3-4-0.4-5.6-1.7c-0.1,2.8-0.2,5.6-0.2,8.5
					c0.7,0.2,1.4,0.4,2.1,0.5C1329.2,789.1,1328.9,791.1,1329.1,793.1z M1341.2,795.1c-6,0-4.1-5.9-1.6-9.3c0.5,0.3,1.1,0.5,1.6,0.7
					c2.5,1,5.1,1.2,7.5,0.8C1348.4,791.3,1345.6,795.1,1341.2,795.1z M1367.7,789.1c-1.7,2.4-4.7,2.1-6.9,0.5
					c-2-1.4-3.3-3.6-4.4-5.8c1.2-1,2.2-2.1,3.2-3.3c0.7-1,1.3-2,1.8-3C1365.6,780.3,1370.5,784.9,1367.7,789.1z M1365.4,760.4
					c2.2-0.7,6.3-1.7,7.5,1.1c1.1,2.5-0.7,4.8-2.8,5.9c-2.2,1.3-4.9,1.5-7.5,1.5c-0.4-1.9-1.2-3.8-2.6-5.4
					C1361.6,762.1,1363.4,761,1365.4,760.4z M1351.6,749.7c0.9-1.8,3.7-6.9,6.4-6c2.9,0.9,1.5,6.9,0.9,8.8c-0.9,2.6-2.4,5-4,7.3
					c-1.4-0.7-2.9-1.2-4.5-1.6c0-1-0.1-2.1-0.1-3.2C1350.3,753.1,1350.8,751.3,1351.6,749.7z M1346,764.9c1,0.1,2.1,0.4,3.1,0.7
					c2,0.6,4.4,1.4,5.7,3.1c3,3.9-2.2,10.1-5.8,11.3c-4.8,1.6-9.6-1.7-10.4-6.5C1338.2,771.1,1345.6,764.8,1346,764.9z
					 M1337.4,746.1c1.5-3,4.4-0.3,5.3,1.8c1.1,2.5,1.4,5.4,1.6,8.2c0,0.5,0,1,0,1.6c-1.7,0.2-3.3,0.7-4.5,1.7
					C1337.1,755.4,1335.3,750,1337.4,746.1z"/>
				<path class="st6" d="M1400.4,845.5c0.9-1.1,1.7-2.4,2.3-3.7c1.2,1.1,2.5,2.1,4.1,2.8c4.9,2.2,10.6,1.5,14.2-2.7
					c5.6-6.6,2.1-13.8-3.4-19.1c2.3-0.7,4.4-1.7,6.3-3.4c3.5-3.1,5-8.1,3.1-12.5c-2.6-6.2-8.9-6.5-14.7-4.4c0.5-1.5,0.9-3.1,1-4.7
					c0.4-4.4-0.9-10.4-5.9-11.5c-4.7-1-8.6,2.7-11.1,6.3c-0.4-0.8-0.8-1.5-1.3-2.2c-3.1-4.4-9.3-6.1-13.5-2.2c-3.8,3.5-4,9.2-3,14
					c0.5,2.2,1.3,4.2,2.4,6c-3-0.8-6.3-0.5-9.3,1.1c-4.7,2.4-6.8,7.5-6.2,12.5c0.7,4.9,3.7,9.3,8,11.7c1.6,0.9,3.2,1.4,4.8,1.7
					c-0.7,1.9-0.9,3.9-0.8,5.8c0.5,5.6,5.2,9.2,10.5,9.7C1392.6,851.1,1397.4,849,1400.4,845.5z M1416.1,836.9
					c-1.7,2.4-4.7,2.1-6.9,0.5c-2-1.4-3.3-3.6-4.4-5.8c1.2-1,2.2-2.1,3.2-3.3c0.7-1,1.3-2,1.8-3C1414,828.1,1419,832.7,1416.1,836.9
					z M1413.9,808.2c2.2-0.7,6.3-1.7,7.5,1.1c1.1,2.5-0.7,4.8-2.8,5.9c-2.2,1.3-4.9,1.5-7.5,1.5c-0.4-1.9-1.2-3.8-2.6-5.4
					C1410,809.9,1411.8,808.8,1413.9,808.2z M1400,797.5c0.9-1.8,3.7-6.9,6.4-6c2.9,0.9,1.5,6.9,0.9,8.8c-0.9,2.6-2.4,5-4,7.3
					c-1.4-0.7-2.9-1.2-4.5-1.6c0-1-0.1-2.1-0.1-3.2C1398.7,801,1399.2,799.2,1400,797.5z M1373.3,821.2c-0.4-2,0-4.1,1.9-5.2
					c1.6-1,3.7-0.9,5.7-0.6c-0.2,0.7-0.4,1.4-0.6,2.1c-0.6,3.6,0,7.2,1.7,10.3C1378.2,828.5,1374.1,825,1373.3,821.2z M1385.8,793.9
					c1.5-3,4.4-0.3,5.3,1.8c1.1,2.5,1.4,5.4,1.6,8.2c0,0.5,0,1,0,1.6c-1.7,0.2-3.3,0.7-4.5,1.7
					C1385.5,803.2,1383.8,797.9,1385.8,793.9z M1389.6,842.9c-6,0-4.1-5.9-1.6-9.3c0.5,0.3,1.1,0.5,1.6,0.7c2.5,1,5.1,1.2,7.5,0.8
					C1396.8,839.2,1394,842.9,1389.6,842.9z M1387,821.3c-0.4-2.3,7-8.6,7.5-8.6c1,0.1,2.1,0.4,3.1,0.7c2,0.6,4.4,1.4,5.7,3.1
					c3,3.9-2.2,10.1-5.8,11.3C1392.6,829.4,1387.7,826.1,1387,821.3z"/>
			</g>
			<path class="st11" d="M1464.2,667.1l-38.3,111.1L1290,920.3c0,0-207.7-107.8-265.5-199.9l-15.4-25c0,0,38-26.2,24.5-39.6
				c-5.6-0.1-11.1,1.5-15.8,4.5L999,672.2c0,0-48.9,11.6-52.7-22.5c0,0-25.4-11.8-20.5,14.9l5.6,6.2c0,0-20.5,7.4,2.5,22.3
				c0,0-9.9,9.9-5,20.5s23.3,27.9,23.3,27.9s24.4,310.7,222.2,412.8c0,0,330.6-72.2,402.1-179.8
				C1576.5,974.5,1589.7,779.4,1464.2,667.1z"/>
			<path class="st13" d="M1464.2,667.1l-38.3,111.1l-55.6,58.2c24,29.3,83.7,115.6,69.4,232.9c59.9-26.7,112.9-58.8,136.9-94.8
				C1576.5,974.5,1589.7,779.4,1464.2,667.1z"/>
			<g>
				<path class="st5" d="M1494.5,733.3c2.1-3.1,4.2-6.3,5.4-9.8c0.9-2.5,2.8-10.7-1.2-11.8c-3.6-1.1-7.4,5.6-8.6,8.1
					c-1,2.2-1.7,4.7-1.9,7.1c0.1,1.4,0.1,2.8,0.2,4.2C1490.6,731.7,1492.7,732.5,1494.5,733.3z"/>
				<path class="st5" d="M1476.3,769.3c-0.8-0.3-1.5-0.6-2.2-1c-3.3,4.5-5.9,12.4,2.2,12.4c5.9,0,9.6-5.1,10-10.4
					C1483,770.9,1479.6,770.6,1476.3,769.3z"/>
				<path class="st5" d="M1409.8,825.2c-1.8-2.3-5-3.4-7.7-4.1c-1.3-0.4-2.7-0.8-4.1-0.9c-0.6-0.1-10.5,8.4-10,11.5
					c1,6.5,7.6,10.9,14,8.8C1406.9,838.8,1413.8,830.4,1409.8,825.2z"/>
				<path class="st5" d="M1503.3,757c-0.7,1.4-1.5,2.8-2.5,4.1c-1.3,1.7-2.7,3.2-4.3,4.5c1.5,3,3.3,5.9,5.9,7.8
					c2.9,2.1,7.1,2.6,9.3-0.7C1515.6,767.1,1509,760.8,1503.3,757z"/>
				<path class="st5" d="M1515.1,743.5c2.8-1.6,5.2-4.6,3.7-8c-1.6-3.7-7-2.4-10-1.4c-2.8,0.9-5.2,2.3-7.3,4.2
					c1.9,2.2,3,4.6,3.5,7.3C1508.5,745.6,1512.1,745.2,1515.1,743.5z"/>
				<path class="st5" d="M1417.8,853.4c2.9,2.1,7.1,2.6,9.3-0.7c3.9-5.6-2.8-11.8-8.5-15.7c-0.7,1.4-1.5,2.8-2.5,4.1
					c-1.3,1.7-2.7,3.2-4.3,4.5C1413.3,848.6,1415.1,851.5,1417.8,853.4z"/>
				<path class="st5" d="M1472.7,751.7c1,6.5,7.6,10.9,14,8.8c4.9-1.7,11.9-10,7.8-15.2c-1.8-2.3-5-3.4-7.7-4.1
					c-1.3-0.4-2.7-0.8-4.1-0.9C1482.1,740.1,1472.2,748.6,1472.7,751.7z"/>
				<path class="st5" d="M1430.3,823.6c2.8-1.6,5.2-4.6,3.7-8c-1.6-3.7-7-2.4-10-1.4c-2.8,0.9-5.2,2.3-7.3,4.2
					c1.9,2.2,3,4.6,3.5,7.3C1423.7,825.6,1427.3,825.3,1430.3,823.6z"/>
				<path class="st5" d="M1555,917.4c0.2-1,0.4-1.9,0.7-2.8c-2.6-0.4-5.4-0.5-7.6,0.8c-2.5,1.5-3.1,4.3-2.5,7
					c1,5.1,6.5,9.7,11.7,8.9C1555.1,927.1,1554.2,922.2,1555,917.4z"/>
				<path class="st5" d="M1571.6,901.2c0-0.7,0-1.4,0-2.1c-0.2-3.8-0.7-7.6-2.1-11c-1.2-2.8-5-6.5-7.1-2.4
					c-2.7,5.3-0.3,12.5,3.2,17.8C1567.2,902.2,1569.3,901.4,1571.6,901.2z"/>
				<path class="st5" d="M1480.9,888.4c-0.8-0.3-1.5-0.6-2.2-1c-3.3,4.5-5.9,12.4,2.2,12.4c5.9,0,9.6-5.1,10-10.4
					C1487.7,890,1484.3,889.7,1480.9,888.4z"/>
				<path class="st5" d="M1468.4,865.8c0.2-1,0.4-1.9,0.7-2.8c-2.6-0.4-5.4-0.5-7.6,0.8c-2.5,1.5-3.1,4.3-2.5,7
					c1,5.1,6.5,9.7,11.7,8.9C1468.4,875.5,1467.6,870.6,1468.4,865.8z"/>
				<path class="st5" d="M1508.1,977.4c-2.8,0.9-5.2,2.3-7.3,4.2c1.9,2.2,3,4.6,3.5,7.3c3.5,0,7.1-0.3,10.1-2c2.8-1.6,5.2-4.6,3.7-8
					C1516.5,975.2,1511.1,976.5,1508.1,977.4z"/>
				<path class="st5" d="M1499.2,852.5c2.1-3.1,4.2-6.3,5.4-9.8c0.9-2.5,2.8-10.7-1.2-11.8c-3.6-1.1-7.4,5.6-8.6,8.1
					c-1,2.2-1.7,4.7-1.9,7.1c0.1,1.4,0.1,2.8,0.2,4.2C1495.2,850.8,1497.3,851.6,1499.2,852.5z"/>
				<path class="st5" d="M1484.9,849.5c0-0.7,0-1.4,0-2.1c-0.2-3.8-0.7-7.6-2.1-11c-1.2-2.8-5-6.5-7.1-2.4
					c-2.7,5.3-0.3,12.5,3.2,17.8C1480.5,850.5,1482.6,849.8,1484.9,849.5z"/>
				<path class="st5" d="M1513.4,853.3c-2.8,0.9-5.2,2.3-7.3,4.2c1.9,2.2,3,4.6,3.5,7.3c3.5,0,7.1-0.3,10.1-2c2.8-1.6,5.2-4.6,3.7-8
					C1521.9,851,1516.4,852.3,1513.4,853.3z"/>
				<path class="st5" d="M1491.5,860.2c-1.3-0.4-2.7-0.8-4.1-0.9c-0.6-0.1-10.5,8.4-10,11.5c1,6.5,7.6,10.9,14,8.8
					c4.9-1.7,11.9-10,7.8-15.2C1497.3,862,1494.2,860.9,1491.5,860.2z"/>
				<path class="st5" d="M1507.9,876.1c-0.7,1.4-1.5,2.8-2.5,4.1c-1.3,1.7-2.7,3.2-4.3,4.5c1.5,3,3.3,5.9,5.9,7.8
					c2.9,2.1,7.1,2.6,9.3-0.7C1520.3,886.2,1513.6,880,1507.9,876.1z"/>
				<path class="st5" d="M1493.8,976.6c2.1-3.1,4.2-6.3,5.4-9.8c0.9-2.5,2.8-10.7-1.2-11.8c-3.6-1.1-7.4,5.6-8.6,8.1
					c-1,2.2-1.7,4.7-1.9,7.1c0.1,1.4,0.1,2.8,0.2,4.2C1489.9,975,1492,975.8,1493.8,976.6z"/>
				<path class="st5" d="M1479.6,973.7c0-0.7,0-1.4,0-2.1c-0.2-3.8-0.7-7.6-2.1-11c-1.2-2.8-5-6.5-7.1-2.4
					c-2.7,5.3-0.3,12.5,3.2,17.8C1475.2,974.7,1477.3,974,1479.6,973.7z"/>
				<path class="st5" d="M1463.7,746.6c0.2-1,0.4-1.9,0.7-2.8c-2.6-0.4-5.4-0.5-7.6,0.8c-2.5,1.5-3.1,4.3-2.5,7
					c1,5.1,6.5,9.7,11.7,8.9C1463.8,756.3,1462.9,751.4,1463.7,746.6z"/>
				<path class="st5" d="M1475.6,1012.6c-0.8-0.3-1.5-0.6-2.2-1c-3.3,4.5-5.9,12.4,2.2,12.4c5.9,0,9.6-5.1,10-10.4
					C1482.4,1014.2,1479,1013.9,1475.6,1012.6z"/>
				<path class="st5" d="M1480.3,730.4c0-0.7,0-1.4,0-2.1c-0.2-3.8-0.7-7.6-2.1-11c-1.2-2.8-5-6.5-7.1-2.4
					c-2.7,5.3-0.3,12.5,3.2,17.8C1475.9,731.4,1478,730.7,1480.3,730.4z"/>
				<path class="st5" d="M1463.1,989.9c0.2-1,0.4-1.9,0.7-2.8c-2.6-0.4-5.4-0.5-7.6,0.8c-2.5,1.5-3.1,4.3-2.5,7
					c1,5.1,6.5,9.7,11.7,8.9C1463.1,999.6,1462.2,994.7,1463.1,989.9z"/>
				<path class="st5" d="M1502.6,1000.3c-0.7,1.4-1.5,2.8-2.5,4.1c-1.3,1.7-2.7,3.2-4.3,4.5c1.5,3,3.3,5.9,5.9,7.8
					c2.9,2.1,7.1,2.6,9.3-0.7C1515,1010.4,1508.3,1004.1,1502.6,1000.3z"/>
				<path class="st5" d="M1486.1,984.4c-1.3-0.4-2.7-0.8-4.1-0.9c-0.6-0.1-10.5,8.4-10,11.5c1,6.5,7.6,10.9,14,8.8
					c4.9-1.7,11.9-10,7.8-15.2C1492,986.2,1488.8,985.1,1486.1,984.4z"/>
				<path class="st6" d="M1531.1,851.5c-3.6-8.3-11.9-8.7-19.7-5.9c0.7-2,1.2-4.2,1.4-6.4c0.6-6-1.2-14-8-15.4
					c-6.3-1.3-11.6,3.6-14.8,8.5c-0.5-1-1.1-2.1-1.7-3c-4.2-5.9-12.5-8.1-18.1-2.9c-5.1,4.7-5.4,12.4-4.1,18.7
					c0.6,3,1.7,5.7,3.2,8.1c-4.1-1.1-8.4-0.7-12.5,1.4c-6.3,3.2-9.2,10-8.3,16.8c0.9,6.5,4.9,12.5,10.7,15.7
					c2.1,1.2,4.3,1.9,6.5,2.2c-0.9,2.5-1.3,5.2-1,7.8c0.6,7.5,7,12.3,14.1,13c6.2,0.6,12.6-2.1,16.6-6.9c1.3-1.5,2.3-3.2,3-4.9
					c1.6,1.5,3.4,2.8,5.5,3.7c6.6,3,14.3,2,19.1-3.7c7.6-8.8,2.8-18.6-4.5-25.6c3.1-0.9,5.9-2.3,8.5-4.6
					C1531.6,864,1533.7,857.4,1531.1,851.5z M1494.8,838.9c1.1-2.5,4.9-9.2,8.6-8.1c4,1.2,2,9.3,1.2,11.8c-1.2,3.5-3.2,6.7-5.4,9.8
					c-1.8-0.9-3.9-1.6-6.1-2.2c0-1.4-0.1-2.8-0.2-4.2C1493.1,843.6,1493.8,841.1,1494.8,838.9z M1459,870.7c-0.5-2.7,0-5.5,2.5-7
					c2.2-1.3,5-1.2,7.6-0.8c-0.3,0.9-0.6,1.9-0.7,2.8c-0.8,4.8,0.1,9.7,2.3,13.8C1465.5,880.4,1460,875.8,1459,870.7z M1475.7,834
					c2.1-4.1,5.9-0.4,7.1,2.4c1.5,3.4,1.9,7.2,2.1,11c0,0.7,0,1.4,0,2.1c-2.3,0.2-4.4,1-6.1,2.3C1475.4,846.5,1473,839.4,1475.7,834
					z M1480.9,899.9c-8.1,0-5.5-7.9-2.2-12.4c0.7,0.4,1.4,0.7,2.2,1c3.4,1.3,6.8,1.6,10,1C1490.5,894.8,1486.7,899.9,1480.9,899.9z
					 M1491.3,879.6c-6.4,2.2-12.9-2.3-14-8.8c-0.5-3.1,9.4-11.6,10-11.5c1.4,0.1,2.8,0.5,4.1,0.9c2.7,0.8,5.9,1.8,7.7,4.1
					C1503.2,869.5,1496.2,877.9,1491.3,879.6z M1516.4,891.8c-2.2,3.3-6.4,2.8-9.3,0.7c-2.7-1.9-4.5-4.8-5.9-7.8
					c1.6-1.3,3-2.8,4.3-4.5c1-1.3,1.8-2.7,2.5-4.1C1513.6,880,1520.3,886.2,1516.4,891.8z M1519.7,862.7c-3,1.7-6.6,2-10.1,2
					c-0.5-2.6-1.6-5.1-3.5-7.3c2.1-1.9,4.6-3.3,7.3-4.2c3-0.9,8.4-2.2,10,1.4C1524.9,858,1522.5,861.1,1519.7,862.7z"/>
				<path class="st6" d="M1525.8,975.6c-3.6-8.3-11.9-8.7-19.7-5.9c0.7-2,1.2-4.2,1.4-6.4c0.6-6-1.2-14-8-15.4
					c-6.3-1.3-11.6,3.6-14.8,8.5c-0.5-1-1.1-2.1-1.7-3c-4.2-5.9-12.5-8.1-18.1-2.9c-5.1,4.7-5.4,12.4-4.1,18.7
					c0.6,3,1.7,5.7,3.2,8.1c-4.1-1.1-8.4-0.7-12.5,1.4c-6.3,3.2-9.2,10-8.3,16.8c0.9,6.5,4.9,12.5,10.7,15.7
					c2.1,1.2,4.3,1.9,6.5,2.2c-0.9,2.5-1.3,5.2-1,7.8c0.6,7.5,7,12.3,14.1,13c6.2,0.6,12.6-2.1,16.6-6.9c1.3-1.5,2.3-3.2,3-4.9
					c1.6,1.5,3.4,2.8,5.5,3.7c6.6,3,14.3,2,19.1-3.7c7.6-8.8,2.8-18.6-4.5-25.6c3.1-0.9,5.9-2.3,8.5-4.6
					C1526.3,988.2,1528.3,981.6,1525.8,975.6z M1489.5,963.1c1.1-2.5,4.9-9.2,8.6-8.1c4,1.2,2,9.3,1.2,11.8
					c-1.2,3.5-3.2,6.7-5.4,9.8c-1.8-0.9-3.9-1.6-6.1-2.2c0-1.4-0.1-2.8-0.2-4.2C1487.8,967.7,1488.5,965.3,1489.5,963.1z
					 M1453.7,994.9c-0.5-2.7,0-5.5,2.5-7c2.2-1.3,5-1.2,7.6-0.8c-0.3,0.9-0.6,1.9-0.7,2.8c-0.8,4.8,0.1,9.7,2.3,13.8
					C1460.2,1004.6,1454.7,1000,1453.7,994.9z M1470.4,958.2c2.1-4.1,5.9-0.4,7.1,2.4c1.5,3.4,1.9,7.2,2.1,11c0,0.7,0,1.4,0,2.1
					c-2.3,0.2-4.4,1-6.1,2.3C1470.1,970.7,1467.7,963.6,1470.4,958.2z M1475.6,1024c-8.1,0-5.5-7.9-2.2-12.4c0.7,0.4,1.4,0.7,2.2,1
					c3.4,1.3,6.8,1.6,10,1C1485.2,1019,1481.4,1024.1,1475.6,1024z M1486,1003.7c-6.4,2.2-12.9-2.3-14-8.8
					c-0.5-3.1,9.4-11.6,10-11.5c1.4,0.1,2.8,0.5,4.1,0.9c2.7,0.8,5.9,1.8,7.7,4.1C1497.9,993.7,1490.9,1002.1,1486,1003.7z
					 M1511.1,1016c-2.2,3.3-6.4,2.8-9.3,0.7c-2.7-1.9-4.5-4.8-5.9-7.8c1.6-1.3,3-2.8,4.3-4.5c1-1.3,1.8-2.7,2.5-4.1
					C1508.3,1004.1,1515,1010.4,1511.1,1016z M1514.4,986.8c-3,1.7-6.6,2-10.1,2c-0.5-2.6-1.6-5.1-3.5-7.3c2.1-1.9,4.6-3.3,7.3-4.2
					c3-0.9,8.4-2.2,10,1.4C1519.6,982.2,1517.2,985.3,1514.4,986.8z"/>
				<path class="st6" d="M1461.4,725.9c0.6,3,1.7,5.7,3.2,8.1c-4.1-1.1-8.4-0.7-12.5,1.4c-6.3,3.2-9.2,10-8.3,16.8
					c0.9,6.5,4.9,12.5,10.7,15.7c2.1,1.2,4.3,1.9,6.5,2.2c-0.9,2.5-1.3,5.2-1,7.8c0.6,7.5,7,12.3,14.1,13c6.2,0.6,12.6-2.1,16.6-6.9
					c1.3-1.5,2.3-3.2,3-4.9c1.6,1.5,3.4,2.8,5.5,3.7c6.6,3,14.3,2,19.1-3.7c7.6-8.8,2.8-18.6-4.5-25.6c3.1-0.9,5.9-2.3,8.5-4.6
					c1.4-1.2,2.5-2.6,3.4-4.2c-3.7-6.7-7.7-13.4-12-20c-2.2,0.1-4.6,0.7-6.9,1.5c0.7-2,1.2-4.2,1.4-6.4c0.1-1,0.1-2.1,0.1-3.2
					c-2.9-4.2-6-8.3-9.1-12.4c-5.8-0.6-10.6,4.1-13.7,8.6c-0.5-1-1.1-2.1-1.7-3c-4.2-5.9-12.5-8.1-18.1-2.9
					C1460.4,711.9,1460,719.6,1461.4,725.9z M1476.2,780.7c-8.1,0-5.5-7.9-2.2-12.4c0.7,0.4,1.4,0.7,2.2,1c3.4,1.3,6.8,1.6,10,1
					C1485.9,775.7,1482.1,780.8,1476.2,780.7z M1511.8,772.7c-2.2,3.3-6.4,2.8-9.3,0.7c-2.7-1.9-4.5-4.8-5.9-7.8
					c1.6-1.3,3-2.8,4.3-4.5c1-1.3,1.8-2.7,2.5-4.1C1509,760.8,1515.6,767.1,1511.8,772.7z M1508.8,734.1c3-0.9,8.4-2.2,10,1.4
					c1.4,3.3-1,6.4-3.7,8c-3,1.7-6.6,2-10.1,2c-0.5-2.6-1.6-5.1-3.5-7.3C1503.6,736.4,1506,735,1508.8,734.1z M1490.2,719.8
					c1.1-2.5,4.9-9.2,8.6-8.1c4,1.2,2,9.3,1.2,11.8c-1.2,3.5-3.2,6.7-5.4,9.8c-1.8-0.9-3.9-1.6-6.1-2.2c0-1.4-0.1-2.8-0.2-4.2
					C1488.5,724.4,1489.1,722,1490.2,719.8z M1482.7,740.2c1.4,0.1,2.8,0.5,4.1,0.9c2.7,0.8,5.9,1.8,7.7,4.1
					c4.1,5.2-2.9,13.6-7.8,15.2c-6.4,2.2-12.9-2.3-14-8.8C1472.2,748.6,1482.1,740.1,1482.7,740.2z M1471.1,714.9
					c2.1-4.1,5.9-0.4,7.1,2.4c1.5,3.4,1.9,7.2,2.1,11c0,0.7,0,1.4,0,2.1c-2.3,0.2-4.4,1-6.1,2.3
					C1470.7,727.4,1468.4,720.3,1471.1,714.9z M1466.1,760.4c-5.2,0.9-10.7-3.7-11.7-8.9c-0.5-2.7,0-5.5,2.5-7
					c2.2-1.3,5-1.2,7.6-0.8c-0.3,0.9-0.6,1.9-0.7,2.8C1462.9,751.4,1463.8,756.3,1466.1,760.4z"/>
				<path class="st6" d="M1576.7,944.9c-1.5,3.7-4.7,6.6-9.1,6.6c-8.1,0-5.5-7.9-2.2-12.4c0.7,0.4,1.4,0.7,2.2,1
					c3,1.2,6.1,1.5,9,1.2c-0.1-3-0.3-6.2-0.5-9.6c-5.8,0.8-11.2-3.3-12.1-9.2c-0.5-3.1,9.4-11.6,10-11.5c0.2,0,0.3,0,0.5,0.1
					c-1-10.6-2.5-22.2-4.6-34.5c-4.2-2.2-9.3-2.1-13.1,1.5c-5.1,4.7-5.4,12.4-4.1,18.7c0.6,3,1.7,5.7,3.2,8.1
					c-4.1-1.1-8.4-0.7-12.5,1.4c-6.3,3.2-9.2,10-8.3,16.8c0.9,6.5,4.9,12.5,10.7,15.7c2.1,1.2,4.3,1.9,6.5,2.2
					c-0.9,2.5-1.3,5.2-1,7.8c0.6,7.5,7,12.3,14.1,13c4,0.4,8.1-0.6,11.5-2.7C1576.9,955.1,1576.9,950.3,1576.7,944.9z M1545.7,922.4
					c-0.5-2.7,0-5.5,2.5-7c2.2-1.3,5-1.2,7.6-0.8c-0.3,0.9-0.6,1.9-0.7,2.8c-0.8,4.8,0.1,9.7,2.3,13.8
					C1552.2,932.1,1546.7,927.5,1545.7,922.4z M1562.4,885.7c2.1-4.1,5.9-0.4,7.1,2.4c1.5,3.4,1.9,7.2,2.1,11c0,0.7,0,1.4,0,2.1
					c-2.3,0.2-4.4,1-6.1,2.3C1562,898.2,1559.7,891,1562.4,885.7z"/>
				<path class="st6" d="M1391.5,860.8c-1.9,0-3.3-0.5-4.1-1.2c2.3,3.5,4.8,7.3,7.2,11.3c4.4-0.9,8.5-3.2,11.3-6.6
					c1.3-1.5,2.3-3.2,3-4.9c1.6,1.5,3.4,2.8,5.5,3.7c6.6,3,14.3,2,19.1-3.7c7.6-8.8,2.8-18.6-4.5-25.6c3.1-0.9,5.9-2.3,8.5-4.6
					c4.7-4.2,6.8-10.8,4.2-16.8c-3.6-8.3-11.9-8.7-19.7-5.9c0.7-2,1.2-4.2,1.4-6.4c0.5-5-0.7-11.3-5-14.1l-5.4,5.6
					c0.3,0,0.6,0,0.9,0.1c4,1.2,2,9.3,1.2,11.8c-1.2,3.5-3.2,6.7-5.4,9.8c-1.8-0.9-3.9-1.6-6.1-2.2c0-1.4-0.1-2.8-0.2-4.2
					c0.2-2.5,0.9-4.9,1.9-7.1c0.1-0.1,0.1-0.3,0.2-0.5l-10.1,10.6c0,0.2,0,0.4,0,0.6c-0.2,0-0.4,0.1-0.6,0.1l-16,16.7
					c-0.7,4.6,0.2,9.3,2.4,13.2c-3.9,0.7-7.9-1.7-10.1-5.1l-0.9,1c4.4,5.4,10,12.7,16.1,21.7c-1-2.7,0.8-6.9,2.9-9.7
					c0.7,0.4,1.4,0.7,2.2,1c3.4,1.3,6.8,1.6,10,1C1401.1,855.7,1397.4,860.8,1391.5,860.8z M1424.1,814.2c3-0.9,8.4-2.2,10,1.4
					c1.4,3.3-1,6.4-3.7,8c-3,1.7-6.6,2-10.1,2c-0.5-2.6-1.6-5.1-3.5-7.3C1418.9,816.5,1421.3,815,1424.1,814.2z M1416.1,841.1
					c1-1.3,1.8-2.7,2.5-4.1c5.7,3.8,12.4,10.1,8.5,15.7c-2.2,3.3-6.4,2.8-9.3,0.7c-2.7-1.9-4.5-4.8-5.9-7.8
					C1413.4,844.3,1414.8,842.8,1416.1,841.1z M1387.9,831.7c-0.5-3.1,9.4-11.6,10-11.5c1.4,0.1,2.8,0.5,4.1,0.9
					c2.7,0.8,5.9,1.8,7.7,4.1c4.1,5.2-2.9,13.6-7.8,15.2C1395.5,842.6,1389,838.2,1387.9,831.7z"/>
			</g>
			<g>
				<path class="st7" d="M1297.3,943.1c-0.7-9.3-0.7-18.9-2.1-28.2l34.3-35.9c-0.9-13.3-1.4-26.4-1.7-39.3
					c-11.4,8.5-23,16.8-34.8,24.7c-4.3,2.9-8.9,5.8-14.1,6.3c-4.4,0.4-8.8-0.9-13-2.3c-30.2-9.6-60.9-19.4-89.2-33.3
					c-2.6,4.4-5.2,8.8-7.8,13.1c52.8,35,101.9,61.8,116.7,69.7c-5.4,5.7-9.3,13.5-13,20.2c-4.1,7.3-10.5,16.6-10.9,25.2
					c-0.1,4,5.4,6.4,8.1,3.3c3.1-3.5,4.4-7.9,6.2-12.1c1.7-4.1,3.5-8.3,5.4-12.3c1.4-3.1,3.1-6.1,4.8-9.1c0.1,3.7,0.3,7.5,0.5,11.1
					c0.3,5.8,0.7,11.5,1.4,17.3c0.6,5.2,0.9,11.1,4.5,15.1c1.5,1.7,4.9,1.3,5.9-0.8c2.3-4.7,1.2-10.2,0.7-15.3
					C1298.3,954.6,1297.7,948.9,1297.3,943.1z"/>
				<path class="st4" d="M1145.7,817.4c-2,3.6-3.9,7.3-5.9,10.9c9.7,6.9,19.4,13.5,29.1,19.9c2.6-4.4,5.1-8.7,7.8-13.1
					C1165.9,829.8,1155.5,824,1145.7,817.4z"/>
				<path class="st4" d="M1436.4,747.7c-4,2.8-8,5.8-11.9,8.8c-12.1,9.6-23.1,20.5-34.5,31c-19.8,18.5-40.7,35.9-62.3,52.2
					c0.3,12.9,0.9,26,1.7,39.3l96.4-100.9L1436.4,747.7z"/>
				<path class="st13" d="M1373.3,821.2c-0.4-2,0-4.1,1.9-5.2c1.6-1,3.7-0.9,5.7-0.6c-0.2,0.7-0.4,1.4-0.6,2.1
					c-0.5,2.6-0.2,5.3,0.6,7.7l18.3-19.1c-0.2,0-0.3-0.1-0.5-0.1c0-1-0.1-2.1-0.1-3.2c0.2-1.8,0.7-3.7,1.4-5.3
					c0.9-1.8,3.7-6.9,6.4-6c1.8,0.5,2,3.1,1.6,5.4l4.8-5c-0.8-2.7-2.5-4.9-5.4-5.6c-4.7-1-8.6,2.7-11.1,6.3
					c-0.4-0.8-0.8-1.5-1.3-2.2c-1.1-1.6-2.6-2.8-4.2-3.5c-0.3,0.2-0.5,0.5-0.8,0.7c-4,3.7-8,7.3-12,10.9c0.1,1.2,0.2,2.5,0.5,3.7
					c0.5,2.2,1.3,4.2,2.4,6c-3-0.8-6.3-0.5-9.3,1.1c-4.7,2.4-6.8,7.5-6.2,12.5c0.6,4.8,3.6,9.1,7.7,11.5l5.6-5.8
					C1376.1,826.5,1373.9,823.9,1373.3,821.2z M1385.8,793.9c1.5-3,4.4-0.3,5.3,1.8c1.1,2.5,1.4,5.4,1.6,8.2c0,0.5,0,1,0,1.6
					c-1.7,0.2-3.3,0.7-4.5,1.7C1385.5,803.2,1383.8,797.9,1385.8,793.9z"/>
			</g>
			<path class="st7" d="M1013.6,782.9c-13.1,10.3-24.3,22.1-33.4,36.2c-4.4,6.8-8,13.9-11.2,21.3c-3,7.1-7.2,15.9-7.1,23.8
				c0.1,3.6,5.2,5.3,7,1.9c3.5-6.7,4.7-14.9,7.5-22c2.9-7.3,6.5-14.3,10.5-21.1c8-13.6,18.3-26.2,30.3-36.5
				C1019.7,784.3,1016.1,780.9,1013.6,782.9z"/>
			<path class="st7" d="M1026,802.4c-13.5,10.4-24.7,22.9-33.3,37.6c-4.2,7.1-7.7,14.6-10.4,22.3c-1.4,4-2.6,8-3.6,12.1
				c-0.9,3.7-2.7,8.4-1.2,12.1c0.9,2.1,3.8,3.7,5.7,1.5c2.6-3,2.6-6.8,3.4-10.6c0.8-3.6,1.7-7.2,2.8-10.7c2.5-8,5.7-15.7,9.6-23.1
				c7.6-14.3,18-27.5,30.2-38.2C1031.2,803.6,1028.1,800.7,1026,802.4z"/>
			<path class="st7" d="M1035.8,821.3c-14.3,11.5-26.2,26-35,42c-4.3,7.7-7.9,15.9-10.8,24.2c-2.8,8.3-6.6,18.6-5.8,27.4
				c0.4,4.2,5.5,4.8,7.1,1c3.2-7.7,3.8-16.6,6.4-24.6c2.7-8.5,6-16.8,10.2-24.8c8.1-15.7,18.6-29.6,31.1-42.1
				C1041.1,822.4,1038,819.5,1035.8,821.3z"/>
			<path class="st7" d="M1047.9,844.3c-14.6,13.1-26.8,28.7-36.1,46c-4.5,8.4-8.2,17.1-11.2,26.1c-1.6,4.8-3,9.7-4.2,14.7
				c-1,4.3-2.9,9.6-1.3,13.9c0.8,2.1,4,3.7,5.8,1.5c2.7-3.4,2.9-7.4,3.8-11.5c1-4.7,2.2-9.4,3.6-14c2.8-9.1,6.3-18,10.5-26.6
				c8.4-17.1,19.6-32.6,33-46.1C1054.3,845.7,1050.5,842,1047.9,844.3z"/>
			<path class="st7" d="M1058,873.7c-13.1,16.8-26.5,33.2-36.8,51.9c-4.9,9-9.2,18.5-12.4,28.2c-2.1,6.6-7.3,20.4,1.4,24.5
				c2.7,1.3,5.4-0.8,4.9-3.8c-0.8-4.4-1-7.5,0.1-11.9c1.1-4.4,2.5-8.8,4-13c3.3-9,7.6-17.6,12.3-26c9.1-16.2,20-31.5,31.1-46.4
				C1064.6,874.6,1060,871.1,1058,873.7z"/>
			<path class="st7" d="M1075.9,895.5c-15.7,15.9-29.2,34-40,53.6c-5.2,9.5-9.7,19.4-13.4,29.6c-3.8,10.1-8.6,21.9-8.6,32.9
				c0,3.3,5.2,5.2,6.7,1.8c4.2-9.5,5.9-20.3,9.3-30.1c3.6-10.3,8-20.4,13-30.2c9.9-19.4,22.6-37.3,37.6-53.1
				C1083.1,897,1078.7,892.6,1075.9,895.5z"/>
			<path class="st7" d="M746.2,1576.4c-9.8-6.1-22.2-7.7-33.5-6.5c-3.2,0.3-3.4,5.3,0,5.2c11-0.6,20.5,2.3,30.5,6.6
				C746.7,1583.2,749.6,1578.5,746.2,1576.4z"/>
			<path class="st7" d="M765.9,1558.6c-4.5-5.6-16.3-6.1-22.9-6.6c-8.6-0.7-17.3,0-25.8,1.6c-3.7,0.7-2.9,7.1,0.9,6.6
				c8.2-1,16.5-1.1,24.7,0.1c3.7,0.5,7.3,1.3,10.9,2.2c3.7,0.9,7.1,2.4,10.9,1.5C767,1563.3,767.3,1560.4,765.9,1558.6z"/>
			<path class="st7" d="M785.5,1535.6c-6.3-5.4-15-7.5-23-8.9c-8.6-1.5-17.2-1.8-25.9-0.8c-4.6,0.5-4.7,7.7,0,7.3
				c7.9-0.6,15.9-0.3,23.7,1.3c7.5,1.5,14.6,5,22.1,6.4C785.2,1541.3,788,1537.8,785.5,1535.6z"/>
			<path class="st7" d="M797.8,1509.6c-4.1-5.8-14.1-6.5-20.6-7.7c-8.1-1.5-16.3-2.4-24.6-2.8c-5.1-0.2-5,7.5,0,7.9
				c7.8,0.6,15.6,1.7,23.2,3.4c5.9,1.3,14.3,5.6,20.2,3.5C797.7,1513.4,799,1511.3,797.8,1509.6z"/>
			<path class="st7" d="M816.9,1489.1c-1.5-4.2-4.9-4.9-8.8-6.2c-4.7-1.7-9.5-3.2-14.4-4.5c-9.7-2.7-19.5-4.9-29.5-6.5
				c-4.4-0.7-6.3,5.9-1.9,6.8c9.6,1.8,19,4.1,28.3,7.2c4.5,1.5,8.9,3.1,13.3,4.9c4.1,1.7,7.2,3.9,11.5,1.9
				C816.6,1492.1,817.3,1490.3,816.9,1489.1z"/>
			<path class="st7" d="M829.2,1463.9c-2.2-3.8-6.4-4.8-10.3-6.4c-4.2-1.7-8.5-3.4-12.8-4.8c-8.9-3.1-18-5.5-27.3-7.4
				c-4.5-0.9-6.5,5.8-1.9,7c8.6,2.2,17,4.8,25.2,8c4.2,1.6,8.3,3.4,12.4,5.2c3.6,1.7,7.3,4.6,11.4,4
				C828.6,1469.1,830.7,1466.6,829.2,1463.9z"/>
			<path class="st7" d="M852.7,1441.7c-2.9-4.3-7.9-7-12.3-9.6c-4.8-2.9-9.8-5.4-15-7.6c-10.2-4.4-20.8-7.3-31.8-8.8
				c-5.3-0.7-7.6,7.3-2.2,8.1c10.4,1.6,20.7,4.4,30.3,8.7c4.6,2.1,9.1,4.4,13.4,7.1c4.3,2.6,8.3,6.4,13,8.1
				C851.4,1448.9,854.7,1444.6,852.7,1441.7z"/>
			<path class="st7" d="M853.7,1400.5c-14.4-5.5-29.3-9.9-43.9-14.6c-4.7-1.5-6.6,5.7-2,7.4c14.5,5.3,28.9,11,43.7,15.5
				C856.7,1410.4,858.7,1402.5,853.7,1400.5z"/>
			<path class="st12" d="M1686.3,1684.5c-7-1.6-14.9,0-22,0.6c-7.3,0.6-14.5,1.1-21.8,1.6c-14.5,1-29.1,1.9-43.7,2.8
				c-5.2,0.3-10.5,0.6-15.7,0.9c-0.1-0.7-0.3-1.4-0.7-2c-4.5-8.7-16.2-15.4-25.1-18.6c-8.5-3-20.9-5.6-29.1-0.6
				c-2.4,1.4-2.7,5.4,0,6.8c7.3,3.6,15.9,3.9,23.3,7.7c3.6,1.8,7.3,3.8,10.5,6.2c0.7,0.5,1.3,1,1.9,1.6c-2.9,0.2-5.9,0.3-8.8,0.5
				c-7,0.4-13.9,1-20.9,1.6c-3.6,0.3-7.3,0.8-10.9,1.2c-4,0.5-7.9,2-11.9,2.4c-5.4,0.5-5.5,8.2,0,8.5c4,0.3,7.9,1.6,11.9,2
				c3.3,0.3,6.6,0.5,9.9,0.7c7.3,0.4,14.6,0.5,21.9,0.5c14.9-0.1,29.8-0.6,44.7-1.3c14.6-0.6,29.1-1.6,43.7-2.6
				c7.3-0.5,14.5-1.1,21.8-1.7c7.7-0.6,15.9-0.6,23.1-3.6C1695,1697,1692.9,1686,1686.3,1684.5z"/>
			<path class="st15" d="M1421,1489.2c-5,4.4-8.8,9.3-12.4,14.9c-3.1,5-6.5,10.8-7.1,16.7c-0.3,2.4,3.1,3.5,4.6,1.9
				c4-4,6.7-9.7,9.8-14.4c3.3-5.1,6.9-10,10.2-15.2C1428.2,1489.8,1423.7,1486.8,1421,1489.2z"/>
			<path class="st15" d="M1439.6,1499.6c-3.6,3.1-6,7.8-8.6,11.7c-2.8,4.2-6.1,8.3-8.3,12.8c-1.8,3.6,2.7,7.7,5.8,4.5
				c3.5-3.6,6.3-8.2,9.3-12.3c3-4.1,6.5-8.1,8.4-12.9C1447.9,1499.4,1442.3,1497.2,1439.6,1499.6z"/>
			<path class="st15" d="M1468.1,1512.6c-6.3,1.7-11,8.4-14.1,13.8c-3.4,5.9-5.4,12.4-6.3,19.1c-0.5,3.9,5.9,4.7,6.8,0.9
				c1.3-5.7,3.6-10.9,7-15.7c3.2-4.5,8.3-7.6,11.1-12.3C1474.4,1515.5,1471.4,1511.8,1468.1,1512.6z"/>
			<path class="st15" d="M1491.8,1526.7c-5.1,3.4-7.7,9.2-10.5,14.5c-3.1,5.8-6,11.6-8.6,17.6c-2,4.6,4.4,8.7,6.9,4
				c2.9-5.5,6-10.9,9.3-16.1c3.1-4.9,7.6-9.7,8.9-15.4C1498.4,1528,1494.9,1524.6,1491.8,1526.7z"/>
			<path class="st15" d="M1519,1545.5c-0.4-3.2-3.4-5.4-6.5-3.7c-5.5,2.9-7.5,10.9-10,16.2c-2.8,5.9-6.2,12.1-7.8,18.4
				c-0.8,3.3,3.5,6.3,6,3.5c4.2-4.9,7.4-11.1,10.6-16.8C1514.1,1558.1,1519.7,1551.5,1519,1545.5z"/>
			<path class="st15" d="M1541.7,1551.5c-3.4,1.6-5,4.6-7,7.6c-2.2,3.3-4.4,6.6-6.6,9.9c-4.4,6.6-8.6,13.3-12.7,20.2
				c-2.3,3.8,3.4,8.5,6.3,4.9c5-6.3,9.9-12.6,14.6-19.1c4.2-5.8,11.3-12.4,11.9-19.7C1548.6,1551.6,1544.4,1550.2,1541.7,1551.5z"/>
			<path class="st15" d="M1561,1580.3c-9.4,5.3-16.1,17.4-20.8,26.7c-2.5,4.9,4.5,9,7.4,4.3c2.8-4.7,6-9.1,9.6-13.1
				c3.4-3.8,7.4-7.2,10.4-11.4C1570.4,1582.8,1564.9,1578.1,1561,1580.3z"/>
		</g>
		<path class="st10" d="M920.3,528.4c-0.2,6.9,1.8,13.9-0.1,20.5c-1,3.5-3,6.6-3.6,10.2c-0.9,5.9,2.6,12,1,17.8
			c-0.8,3.2-3,5.8-4.4,8.7c-5.5,11.1,0.4,25-3.6,36.7c-0.9,2.6-2.2,5.1-2.7,7.8c-0.4,2.3-0.2,4.6,0.1,6.9c1.1,9,2.7,17.9,4.9,26.6
			c1.2,4.9,2.6,9.9,2.3,15c-0.4,5.2-2.6,10-4.2,15c-3.8,12.1-3.5,25.5,0.8,37.5c2.4,6.8,9,14.2,15.6,11.1c2.6-1.2,4.3-3.9,5.6-6.6
			c6.6-13.4,8.5-29.1,5.2-43.6c-1.6-7.3-4.5-14.3-4.6-21.8c-0.1-7.4,3.5-15.7,10.6-17.9c1.3-0.4,2.7-0.6,3.8-1.4
			c2-1.4,2.5-4.1,3.7-6.3c2.7-4.8,10-6,14.1-2.4c1.3,1.1,2.2,2.6,3.7,3.4c3.6,2,7.9-0.9,10.4-4.1c2.5-3.2,4.6-7.2,8.4-8.6
			c5.9-2.2,11.7,2.9,16.2,7.1s11.5,8.4,16.6,4.7c3.1-2.3,5.4-7.5,9.1-6.2c2.7,0.9,3.1,4.8,5.5,6.5c4.4,3.2,10.1-3.4,15.5-2.5
			c3.4,0.6,5.7,4.1,9,5.2c7.2,2.4,14.1-7.5,21.5-5.4c2.1,0.6,3.8,2.1,5.9,2.7c4.8,1.3,9.2-2.6,12.9-6c3.6-3.4,9-6.6,13.2-4
			c0.6,4.2,4,7.9,8.1,8.9c4.2,0.9,8.8-1,11.1-4.6c1.5-2.3,2-5,3.6-7.2c1.6-2.2,5-3.6,6.9-1.7c0.3,5.1,0.6,10.3,0.9,15.4
			c11.2-7.4,17-22.3,13.7-35.3c-0.6-2.2-1.4-4.4-1.2-6.7c0.2-4.9,4.4-8.6,6.7-12.9c2.8-5.4,2.7-11.8,2.4-17.9
			c-0.3-8.1-0.6-16.3-0.9-24.4c-0.2-4.2-0.3-8.5-1.2-12.6c-2.3-10.3-9.6-19.3-19.2-23.7c-2.6-1.2-5.4-2.1-7.7-3.7
			c-2.7-1.9-4.7-4.6-7.4-6.6c-3.9-2.8-9.3-3.5-13.8-1.7c-3.9,1.5-7.2,4.6-11.3,5.2c-9,1.2-16.2-10.3-25.1-8.7
			c-6.3,1.2-10.1,8.5-16.4,9.7c-8.1,1.6-13.8-7.1-20.1-12.4c-6.6-5.6-15.9-7.8-24.3-5.8c-6.6,1.5-12.9,5.5-19.7,4.8
			c-5.6-0.5-10.3-4.1-15.7-5.7C960.1,480.8,921.1,504.6,920.3,528.4z"/>
		<path class="st16" d="M954.9,523.1c-6.1,2.7-10.8,8.9-14.8,14c-3.7,4.8,4.7,11.4,8.5,6.5c1.8-2.4,3.8-4.6,5.9-6.7
			c2.1-2.1,4.4-3.9,6.3-6.3C964.2,526.3,960,520.8,954.9,523.1z"/>
		<path class="st17" d="M981.6,530c-4.5,2.7-8.4,6.3-12.4,9.7c-4.2,3.6,1.3,10.8,5.9,7.7c4.4-3,8.8-5.7,12.6-9.4
			C992,534,986.6,527,981.6,530z"/>
		<path class="st18" d="M962.7,497.2c-2.8,0.5-5.3,2.2-7.6,3.7c-2.3,1.5-4.6,3-6.9,4.6c-2.2,1.5-3.2,4.3-1.8,6.7
			c1.3,2.2,4.5,3.2,6.7,1.8c2.3-1.5,4.6-3,7-4.4c2.4-1.4,5.1-2.6,7-4.8C970.2,501.2,967.1,496.4,962.7,497.2z"/>
		<path class="st11" d="M1009.3,499.4c-7.1,0.3-14.2,4.8-20.4,8.1c-6.5,3.5-0.7,13.3,5.8,9.9c5.9-3.1,13.1-5.3,18-9.8
			C1015.7,504.8,1013.4,499.3,1009.3,499.4z"/>
		<path class="st17" d="M950.8,568.7c-6.7,3-11.8,7.9-17.3,12.6c-2.3,2-2,5.9,0,8c2.3,2.3,5.6,2,8,0c2.7-2.3,5.4-4.7,8.1-7
			c2.7-2.4,4.8-5.1,6.7-8.1C958.6,570.5,954.2,567.2,950.8,568.7z"/>
		<path class="st16" d="M939.1,613c-2.1-1.6-4.9-1.4-6.9,0.4c-3.2,3-6,6.4-8.9,9.7c-1.9,2.2-2.2,5.5,0,7.7c2,2,5.7,2.2,7.7,0
			c3.2-3.6,6.6-7.2,9.5-11.1C942,617.7,941,614.4,939.1,613z"/>
		<path class="st18" d="M971,609c-4.5,1.9-8.5,4.7-12.9,6.7c-1.2,0.6-1.9,1.5-2.2,2.7c-0.1-1.2-0.4-2.5-0.7-3.7
			c-0.6-2.8-3.8-4.4-6.5-3.7c-2.9,0.8-4.3,3.7-3.7,6.5c0.6,2.7,0.7,5.7,1,8.5c0.2,1.9,1.2,3.6,3.1,4.1c1.8,0.5,3.9-0.3,4.8-2
			c1.2-2.2,2-4.2,2.1-6.7c0,0,0,0,0,0c0.8,2.4,3.1,4.4,5.8,3.3c5.2-2.2,10.5-4.5,14.4-8.7C979.8,611.9,975.4,607.1,971,609z"/>
		<path class="st2" d="M979.3,591.4c-1.9-0.8-3.7-1.7-5.7-2c-1.8-0.3-3.5-0.6-5.3-0.8c-3.3-0.5-7,0.8-7.8,4.4
			c-0.7,3,0.9,7.2,4.4,7.8c1.8,0.3,3.5,0.6,5.3,0.8c2.2,0.3,4.1,0.4,6.2,0.1c2.5-0.2,4.6-1.6,5.3-4.1
			C982.4,595.5,981.5,592.4,979.3,591.4z"/>
		<path class="st16" d="M993.3,581.6c-3.2-2.6-6.8-4.3-10.5-6.2c-2.5-1.2-5.5-0.6-7,1.8c-1.3,2.3-0.7,5.8,1.8,7
			c3.7,1.8,7.3,3.8,11.2,4.9c1.9,0.5,4.1-0.3,5.1-2.1C995,585.5,994.9,582.8,993.3,581.6z"/>
		<path class="st18" d="M1008,565.2c-3.2-1.4-6.6-2.4-9.6-3.8c-2.7-1.3-6-0.7-7.6,2c-1.4,2.4-0.7,6.3,2,7.6c4.1,2,8.1,3.5,12.7,3.6
			c2.2,0.1,4.3-1.6,4.9-3.7C1010.9,568.9,1010.1,566,1008,565.2z"/>
		<path class="st18" d="M1032.7,549.8c-1-3.2-4.2-5.1-7.5-4.3c-2.8,0.7-5.6,1.8-8,3.4c-2.7,1.7-4,5.5-2.2,8.3c1.8,2.7,5.4,4,8.3,2.2
			c0.5-0.3,1-0.6,1.6-0.9c0.1-0.1,0.9-0.4,1.1-0.5c0.3-0.1,0.7-0.2,0.7-0.3c0.6-0.2,1.1-0.3,1.7-0.5
			C1031.6,556.5,1033.7,552.8,1032.7,549.8z"/>
		<path class="st16" d="M1029.1,527.4c-0.9-2.9-4-4.9-7-4c-1.3,0.4-2.6,0.7-3.8,1.1c-2.9,0.8-5,4.1-4,7c0.9,2.9,4,4.9,7,4
			c1.3-0.4,2.6-0.7,3.8-1.1C1028,533.6,1030.1,530.3,1029.1,527.4z"/>
		<path class="st17" d="M1039.1,600.7c-2.1-6.5-7.9-10.5-12.8-14.8c-2.4-2.2-6.2-2.4-8.6,0c-2.2,2.2-2.4,6.4,0,8.6
			c4.8,4.3,9.6,10.1,16.2,11.5C1036.9,606.5,1040.2,604,1039.1,600.7z"/>
		<path class="st11" d="M1017.3,610.8c-0.5-1.4-1.3-2.3-2.5-3.2c-1.5-1.1-2.9-2.2-4.4-3.3c-1-0.8-3-0.9-4.2-0.5
			c-1.3,0.3-2.6,1.3-3.2,2.5c-0.7,1.3-1,2.8-0.5,4.2c0.5,1.4,1.3,2.3,2.5,3.2c1.5,1.1,2.9,2.2,4.4,3.3c1,0.8,3,0.9,4.2,0.5
			c1.3-0.3,2.6-1.3,3.2-2.5C1017.4,613.7,1017.7,612.1,1017.3,610.8z"/>
		<path class="st11" d="M1059.3,609.7c-0.4-1.3-1.2-2.5-2.4-3.1c-1.2-0.6-2.7-1-4-0.5l-3.2,1.3c-1.3,0.5-2.3,1.1-3,2.3
			c-0.6,1.1-0.9,2.7-0.5,3.9c0.8,2.6,3.5,4.2,6.2,3.5c1.1-0.3,2.2-0.6,3.3-0.9c1.3-0.3,2.4-1.3,3.1-2.4
			C1059.4,612.6,1059.7,611,1059.3,609.7z"/>
		<path class="st11" d="M1079.8,575.2c-1-0.9-2.3-1.6-3.6-1.5c-1.4,0.1-2.5,0.6-3.6,1.5c-1.3,1.1-2.6,2.1-3.9,3.2
			c-1,0.8-1.5,2.5-1.5,3.7c0,1.3,0.6,2.8,1.5,3.7c2.2,2,5.2,1.9,7.4,0c1.3-1.1,2.5-2.2,3.8-3.4
			C1081.8,580.6,1081.7,576.9,1079.8,575.2z"/>
		<path class="st17" d="M1063.5,564.5c-0.5-1.5-1.4-2.9-2.8-3.7c-1.4-0.7-3.2-1.2-4.7-0.6c-1.8,0.7-3.7,1.5-5.5,2.2
			c-1.5,0.6-2.8,1.3-3.7,2.8c-0.8,1.3-1.1,3.3-0.6,4.7c0.5,1.5,1.4,2.9,2.8,3.7c1.4,0.7,3.2,1.2,4.7,0.6c1.8-0.7,3.7-1.5,5.5-2.2
			c1.5-0.6,2.8-1.3,3.7-2.8C1063.6,567.9,1064,566,1063.5,564.5z"/>
		<path class="st16" d="M1096.6,606.6c-1.5-0.8-2.9-1.5-4.5-1.8l-3.8-0.8c-3.2-0.7-6.9,1-7.7,4.4c-0.7,3.2,1,6.9,4.4,7.7
			c2.9,0.7,5.7,1.5,8.8,1.4c2.4-0.1,5-1.7,5.6-4.2C1099.8,610.7,1098.9,607.8,1096.6,606.6z"/>
		<path class="st18" d="M1122.7,606.2c-1.5-1.5-3.1-2.4-5.2-2.8c-1.4-0.3-2.8-0.6-4.1-0.8c-3-0.6-6.6,0.9-7.3,4.2
			c-0.7,3.2,1,6.4,4.2,7.3c1.4,0.4,2.7,0.8,4.1,1.2c2.1,0.6,3.9,0.7,6.1,0.1C1124.2,614.1,1125.7,609.2,1122.7,606.2z"/>
		<path class="st17" d="M1136.1,582.7c-1.6-2.4-4-3.2-6.8-2.8c1.5-0.2-0.8-0.1-1.1-0.1c-0.6,0-1.1,0-1.7,0c0,0,0,0-0.1,0
			c-0.1,0-0.2,0-0.4-0.1c-0.2-0.1-0.3-0.1-0.4-0.1c-0.2-0.1-0.4-0.2-0.5-0.3c-3.1-1.8-7.6-0.8-9.3,2.4c-1.8,3.3-0.8,7.3,2.4,9.3
			c5.4,3.3,12.2,3.3,16.9-1.2C1137,588.3,1137.5,584.9,1136.1,582.7z"/>
		<path class="st16" d="M1111.9,559.4c-2.2,1.2-4.5,2.4-6.5,3.9c-2,1.5-4,3.1-6.1,4.6c-2.7,2.1-4.1,5.4-2.3,8.7
			c1.6,2.7,5.9,4.4,8.7,2.3c2.1-1.6,4.3-3.3,6.4-4.9c2.3-1.8,4.3-3.8,6.4-5.9C1122.9,563.5,1117.4,556.4,1111.9,559.4z"/>
		<path class="st11" d="M1117.8,541.9c-1.6-2.4-5.2-3.9-7.8-2.1c-1.8,1.3-3.7,2.5-5.5,3.8c-2.5,1.7-3.8,5.1-2.1,7.9
			c1.6,2.4,5.3,3.9,7.9,2.1c1.8-1.3,3.6-2.6,5.5-3.9c1.2-0.9,2.2-1.9,2.6-3.4C1118.8,544.9,1118.6,543.1,1117.8,541.9z"/>
		<path class="st16" d="M1091.5,531.4c-1.8-2.8-4.9-3.3-7.8-2.1c-2.1,0.9-4.1,2-6.1,3.1c-0.6,0.3-1.2,0.8-1.6,1.4
			c-0.1-1.1-0.5-2.1-1.3-2.8c-4.7-3.9-10.1-6.6-15.1-10.1c-2.7-1.9-6.7-0.5-8.2,2.2c-1.7,3-0.5,6.4,2.2,8.2c2.6,1.8,5.3,3.6,8.1,5
			c3.2,1.6,6.2,2.3,9.7,2.7c1.4,0.2,2.5-0.4,3.3-1.4c0,1,0.2,2.1,0.8,2.9c1.8,2.8,5.2,3.7,8.1,2.1c2-1.1,4-2.2,5.9-3.5
			C1091.9,537.6,1093.2,534.1,1091.5,531.4z"/>
		<path class="st11" d="M1102.1,513.8c-0.4-1.3-1.2-2.5-2.4-3.1c-0.4-0.2-0.8-0.4-1.3-0.5c-0.9-0.2-1.9-0.2-2.8,0
			c-1.1,0.2-2.2,0.3-3.3,0.5c-1.2,0.2-2.6,1.4-3.2,2.5c-0.7,1.1-1,2.8-0.5,4.1c0.4,1.3,1.2,2.5,2.5,3.2c1.3,0.7,2.6,0.8,4.1,0.5
			l3.3-0.6c1.2-0.2,2.5-1.4,3.1-2.4C1102.2,516.7,1102.5,515.1,1102.1,513.8z"/>
		<path class="st16" d="M1135.6,521.3c-2.5-3.7-5.1-7.5-6.9-11.6c-1.1-2.6-4.8-3.3-7.1-2.3c-2.4,1-4.3,4-3.3,6.7
			c2.1,5.2,4.6,10,8.9,13.7c2,1.7,4.8,2.1,7,0.4C1136.2,526.5,1137.1,523.5,1135.6,521.3z"/>
		<path class="st16" d="M1161.1,537.7c-2.3-1.9-4.5-3.7-7.2-5c-2.7-1.3-5.4-2.4-8.2-3.5c-6.1-2.4-10.6,8.1-4.5,10.7
			c4.5,1.9,8.8,4.3,13.3,6.3c2.5,1.1,5.3,0.9,7-1.4C1163,542.9,1163.2,539.5,1161.1,537.7z"/>
		<path class="st11" d="M1154.5,564.6L1154.5,564.6c0-0.9-0.2-1.7-0.7-2.5c-0.4-0.7-0.7-1.5-1.1-2.2c-0.5-1.1-1.8-2-2.9-2.3
			c-0.8-0.2-1.8-0.2-2.6,0c-2.4-1-5.2-0.7-7,1.3c-2.3,2.5-2.7,6.7,0,9.1c1.2,1.1,2.5,2.2,3.7,3.3c1.6,1.4,3.2,2.1,5.3,2
			c1.5-0.1,3.2-0.5,4.3-1.7C1155.2,569.8,1155.4,566.9,1154.5,564.6z"/>
		<path class="st18" d="M1096.9,562.4c-2.3-2.5-4.6-4.9-7-7.2c-2-2-5.7-2.2-7.7,0c-2,2.2-2.1,5.5,0,7.7c2.4,2.4,4.7,4.8,7.2,7
			c2.1,1.9,5.5,2.2,7.5,0C1098.9,567.7,1098.9,564.6,1096.9,562.4z"/>
		<path class="st2" d="M1061,546.5c-1.5-2.1-3-4-5.1-5.6c-1.6-1.2-3.3-2.2-5.1-3.1c-2.9-1.5-6.9-0.8-8.5,2.2
			c-1.5,2.9-0.8,6.8,2.2,8.5c1.6,0.8,3.1,1.7,4.6,2.8c1.5,1,3.1,1.7,4.7,2.5c2.1,1.1,4.7,0.9,6.4-0.8
			C1061.8,551.4,1062.4,548.4,1061,546.5z"/>
		<path class="st16" d="M1155.4,610.5c-0.8-1.7-1.7-3.2-3-4.6c-1-1.1-2.1-2.1-3.2-3.2c-2.4-2.3-6.6-2.5-8.9,0
			c-2.3,2.5-2.5,6.4,0,8.9c1,1.1,2.1,2.2,3.2,3.2c1.4,1.3,2.9,2.2,4.6,3c2.1,1,4.8,1,6.5-0.8
			C1156.3,615.2,1156.5,612.8,1155.4,610.5z"/>
		<path class="st2" d="M1063.4,594.8c0.5,0.7,0-0.1-0.1-0.2c-0.2-0.3-0.4-0.6-0.5-0.8c-0.5-0.9-1.1-1.7-1.8-2.5
			c0-0.1-0.2-0.2-0.3-0.3c0,0,0,0-0.1-0.1c-0.1-0.1-0.2-0.2-0.2-0.3c-0.5-0.6-0.8-1.3-1.2-2c-1.3-2.6-5.2-3.6-7.6-2
			c-2.6,1.7-3.5,4.9-2,7.6c1,1.8,2.2,3.5,3.6,5c1.6,1.7,3.8,2.5,6,3.1c1.8,0.5,4.1-0.3,5-2C1065.1,598.3,1064.7,596.4,1063.4,594.8z
			"/>
		<path class="st18" d="M1075.8,624.9c-0.2-0.7-0.5-1.5-0.9-2.2c-0.4-0.7-1-1.3-1.6-1.9c-0.5-0.5-1-1.1-1.5-1.6
			c-1.1-1.1-2.9-1.8-4.4-1.8c-1.5,0-3.4,0.7-4.4,1.8c-2.4,2.6-2.4,6.3,0,8.9c0.5,0.5,1,1.1,1.5,1.6c0.4,0.4,0.8,0.8,1.2,1.2
			c0.9,0.7,1.7,1,2.8,1.4c2,0.7,4.5-0.1,5.9-1.6C1075.8,629.3,1076.5,627,1075.8,624.9z"/>
		<path class="st11" d="M1041.1,631.5c-0.8-1.7-2.1-2.6-3.6-3.5c-0.4-0.2-0.8-0.5-1.2-0.8c-0.1-0.1-0.5-0.4-0.5-0.4
			c-1.2-1-2.4-1.6-4-1.6c-1.4,0-3,0.6-4,1.6c-1.9,2.1-2.4,5.9,0,8c1.2,1,2.5,2,3.8,2.9c0.7,0.4,1.3,0.8,2,1.1
			c1.5,0.6,2.9,0.5,4.4,0.2c1.5-0.4,2.7-1.5,3.3-2.9C1042,634.4,1041.8,633.1,1041.1,631.5z"/>
		<path class="st11" d="M1039.8,576.9c-0.6-1.3-1.3-2.4-2.5-3.4c-0.9-0.7-1.7-1.4-2.6-2c-1.2-1-2.3-1.6-4-1.6c-1.4,0-3,0.6-4,1.6
			c-1,1.1-1.7,2.5-1.6,4c0.1,1.4,0.5,3.1,1.6,4c0.9,0.7,1.8,1.4,2.8,2.2c1,0.8,1.9,1.5,3.1,1.9c0.6,0.2,1.2,0.3,1.8,0.4
			c1.9,0.4,3.8-0.1,5-1.7C1040.6,580.6,1040.6,578.7,1039.8,576.9z"/>
		<path class="st17" d="M1010.5,542c-0.4-1.1-1-2.2-2.1-2.7c-1.1-0.6-2.3-0.7-3.5-0.5c-0.7,0.1-1.5,0.3-2.2,0.4
			c-1.1,0.2-2.2,1.2-2.8,2.2c-0.6,1-0.8,2.5-0.5,3.6c0.4,1.1,1.1,2.2,2.2,2.8c1.1,0.6,2.4,0.8,3.6,0.5c0.7-0.2,1.4-0.4,2.2-0.6
			c1.1-0.3,2.2-1.1,2.7-2.1C1010.6,544.6,1010.9,543.1,1010.5,542z"/>
		<path class="st11" d="M947.9,560.8c-1-0.9-2.3-1.5-3.7-1.5h-1.6c-1.3,0-2.8,0.6-3.7,1.5c-0.9,0.9-1.6,2.4-1.5,3.7
			c0.1,1.4,0.5,2.8,1.5,3.7c1,0.9,2.3,1.5,3.7,1.5h1.6c1.3,0,2.8-0.6,3.7-1.5c0.9-0.9,1.6-2.4,1.5-3.7
			C949.3,563.2,948.9,561.8,947.9,560.8z"/>
		<path class="st16" d="M1041.5,510.9c-0.9-0.6-2.6-1.8-4.2-2.6c-1.5-0.7-3-1.5-4.4-2.4c-2.8-1.8-7.1-0.7-8.7,2.3
			c-1.6,3.1-0.8,6.8,2.3,8.7c3.8,2.3,7.9,4.2,12.5,3.6c2.3-0.3,4.3-1.4,4.9-3.8C1044.5,514.3,1043.3,512.2,1041.5,510.9z"/>
		<path class="st19" d="M922.8,330.2c-6.3-19.7-12.7-41.2-5.4-60.6c7.7-20.6,28.3-32.7,44.7-47.4c12.8-11.5,23.5-25.2,37.2-35.4
			c13.8-10.2,32.1-16.6,48.2-10.6c11.7,4.4,20.4,14.6,32,19.2c11,4.3,24,2.9,33.8-3.6c4.7-3.1,8.7-7.3,13.6-9.9
			c5-2.6,11.7-3.3,15.8,0.5c6.5,6,1.8,16.8-3.2,24.2c17.7-5.8,39,3.9,46.3,21.1c4.4,10.3,4,22.2,8.2,32.6
			c4.6,11.4,14.3,20.3,18,31.9c2.1,6.5,2.2,13.4,3.7,20c1.8,8.1,5.8,15.7,8.5,23.6c6.6,19,5.9,40.5-1.8,59.1
			c-4.9,1.3-9.6-2.8-11.8-7.3c-2.2-4.5-2.9-9.7-5.5-14c-5.8-9.6-21.2-11.4-28.9-3.2c-3.5,3.7-5.3,8.6-8.2,12.6
			c-8.5,11.9-24.8,15.1-39.4,15.4c-44.6,0.8-86.5-16.6-129.5-25.8C967,365.7,934.8,367.2,922.8,330.2z"/>
		<path class="st20" d="M1224.3,335.8c-2.7-7.9-6.7-15.4-8.5-23.6c-1.5-6.6-1.6-13.5-3.7-20c-3.7-11.7-13.4-20.6-18-31.9
			c-4.2-10.4-3.8-22.3-8.2-32.6c-7.3-17.1-28.6-26.8-46.3-21.1c5-7.4,9.7-18.2,3.2-24.2c-4.1-3.8-10.8-3.2-15.8-0.5
			c-5,2.6-9,6.8-13.6,9.9c-6.7,4.5-14.9,6.5-23,6c-3.6,2.1-7.4,4.2-9.2,7.9c-2.9,6,1.4,13.1,6.3,17.6c6.4,5.9,14.4,10.1,22.9,12
			c7,1.6,15.3,2.4,18.9,8.5c3.6,6.2-0.2,14.5-6.2,18.4s-13.3,4.8-20.3,6.2c-7,1.3-14.4,3.5-18.9,9c-1.8,2.3-3.1,5-4.6,7.5
			c-8,12.6-24.2,17.9-39.1,17.3c-14.9-0.5-29.2-5.8-43.7-9.7c-18.1-4.9-37.3-7.6-55.6-3.8c-9.1,1.9-18.1,5.6-25.7,10.9
			c1.5,10.3,4.6,20.7,7.8,30.6c11.9,37,44.2,35.5,76.4,42.4c43,9.2,84.9,26.6,129.5,25.8c14.6-0.3,30.9-3.5,39.4-15.4
			c2.9-4.1,4.7-9,8.2-12.6c7.7-8.1,23.2-6.4,28.9,3.2c2.6,4.3,3.3,9.5,5.5,14c2.2,4.5,7,8.6,11.8,7.3
			C1230.3,376.3,1230.9,354.9,1224.3,335.8z"/>
		<path class="st19" d="M1224.3,335.8c-2.7-7.9-6.7-15.4-8.5-23.6c-1.5-6.6-1.6-13.5-3.7-20c-3.7-11.7-13.4-20.6-18-31.9
			c-4.2-10.4-3.8-22.3-8.2-32.6c-7.3-17.1-28.6-26.8-46.3-21.1c5-7.4,9.7-18.2,3.2-24.2c-1.9-1.7-4.2-2.5-6.8-2.7
			c-4.6,9.3-7.9,19.2-9.8,29.4c-0.8,4.1,2.7,7.8,6.9,7.1c15.8-2.7,33.5,6,39.7,21c4.1,10,3.6,21.5,8.5,31.1c3,5.8,7.7,10.4,11,16
			c3.4,5.8,5.2,12.3,7,18.8c3.4,12.6,6.9,25.2,10.3,37.8c3,11.1,6.1,22.5,5.9,34c-0.1,5.3-1,10.7-2.7,15.8c2.5,3.1,6.2,5.2,9.9,4.2
			C1230.3,376.3,1230.9,354.9,1224.3,335.8z"/>
		<path class="st21" d="M1183.3,359.2c-6.5-3.1-14.8-2.5-20-7.5c-3.1-3.1-4.3-7.5-6.7-11.2c-4.8-7.2-13.9-10.3-22.4-11.9
			c-14.5-2.8-29.5-2.8-44,0c-8.2,1.6-17.4,3.9-24.5-0.6c-4-2.5-6.8-7-11.2-8.6c-5.6-2-11.8,1.4-16.1,5.5c-4.3,4.1-8,9.1-13.4,11.7
			c-13.2,6.4-27.7-4.7-41.7-9.1c-19.2-5.9-38.9,1.6-55.5,13.9c14.5,25.4,43,25,71.5,31.1c43,9.2,84.9,26.6,129.5,25.8
			c14.6-0.3,30.9-3.5,39.4-15.4c2.9-4.1,4.7-9,8.2-12.6c3.7-3.9,9.1-5.5,14.4-5.1C1188.7,362.8,1186.3,360.7,1183.3,359.2z"/>
		<path class="st19" d="M892.8,411.6c0.4-7.4,0.9-15,3.3-22c2.9-8.3,8.4-15.3,14.3-21.8c18.6-20.6,46.3-37.9,72.8-29.8
			c14,4.3,28.5,15.5,41.7,9.1c5.4-2.6,9-7.7,13.4-11.7c4.3-4.1,10.5-7.5,16.1-5.5c4.5,1.6,7.2,6,11.2,8.6c7.1,4.5,16.3,2.2,24.5,0.6
			c14.5-2.8,29.5-2.8,44,0c8.6,1.6,17.6,4.7,22.4,11.9c2.4,3.6,3.6,8.1,6.7,11.2c5.1,5,13.5,4.5,20,7.5
			c10.9,5.1,14.3,18.7,16.4,30.5c4,22.3,7.9,44.6,11.9,66.8c1.7,9.3,3.3,18.7,2.2,28.1c-3.3,27.6-33.1,48.2-60.5,43.6
			c-11.5-1.9-22-7.4-33.1-10.9c-45.5-14.3-97.3,1.9-144,1.6c-33.4-0.2-59.3-3.3-75.9-36.9C888.2,468.3,891.3,437.5,892.8,411.6z"/>
		<path class="st20" d="M1211.5,466.9c-4-22.3-7.9-44.6-11.9-66.8c-2.1-11.8-5.5-25.4-16.4-30.5c-6.5-3.1-14.8-2.5-20-7.5
			c-3.1-3.1-4.3-7.5-6.7-11.2c-4.8-7.2-13.9-10.3-22.4-11.9c-9.9-1.9-20-2.5-30-1.8c-1,2.7-1.5,5.6-1.4,8.5
			c0.3,8.9,6.5,17.2,14.8,20.2c3,1.1,6.4,1.6,9,3.5c7.9,6.1,1.9,18.8,4.4,28.4c3.2,12.1,18.6,16,25.8,26.2c8.7,12.4,2.7,30-7.1,41.5
			c-13.2,15.4-33,25.1-53.3,26c-11.9,0.6-23.8-1.8-35.7-1.6c-38.4,0.4-73.2,25.8-111.6,26.6c-13.2,0.3-26.3-2.6-38.3-8
			c16.3,18.6,38.4,20.7,65.5,20.9c46.7,0.3,98.5-15.9,144-1.6c11.1,3.5,21.6,8.9,33.1,10.9c27.4,4.6,57.3-16,60.5-43.6
			C1214.9,485.6,1213.2,476.2,1211.5,466.9z"/>
		<path class="st22" d="M927,277.9c1.7-4.3,4.7-7.8,7.7-11.3c7.1-8.2,14.1-16.4,21.2-24.6c2.2-2.5,5-5.2,8.2-4.7
			c2.1,0.4,3.7,2,5.2,3.6c5.4,5.6,11.8,10.4,19.3,12.5c7.5,2.1,16.1,0.9,21.8-4.3c5.7-5.2,7.3-14.9,2.5-21c0.4-3.4,5.4-3.8,8.6-2.5
			s7.1,3.1,9.8,0.9c3.2-2.6,1-7.9,2.6-11.7c2.7-6.2,12.4-4.1,17.6-8.3c4.5-3.7,4-10.6,3.9-16.4c-0.1-3.2,0.1-6.5,0.7-9.7
			c-2.7-1.7-5.6-3.3-8.6-4.4c-16.1-6-34.4,0.4-48.2,10.6c-13.8,10.2-24.5,24-37.2,35.4c-16.3,14.7-37,26.8-44.7,47.4
			c-3.6,9.6-3.9,19.8-2.4,30c3.4-2.4,7-4.4,10.8-6.1C925,288.3,925,282.8,927,277.9z"/>
		<path class="st19" d="M927.7,341.5c5.1-3.8,10.6-7.2,16.2-9.8c-1.6-2.3-3.3-4.5-4.9-6.6c-6.2-8.5-10.6-18.4-12.7-28.8
			c-0.2-0.9-0.3-1.8-0.5-2.7c-3.8,1.7-7.4,3.7-10.8,6.1c0,0,0,0,0,0c1.5,10.3,4.6,20.7,7.8,30.6c0,0,0,0,0,0
			c1.1,3.5,2.4,6.6,3.9,9.4c0.7,1.5,1.6,2.8,2.4,4.1C928.6,343,928.2,342.3,927.7,341.5z"/>
		<path class="st22" d="M1050.7,245.5c-0.3-0.3-0.7-0.5-1-0.8c-0.4-0.4-0.9-0.8-1.5-0.9c-0.5-0.3-1.1-0.4-1.8-0.4
			c-1.1,0-2.5,0.5-3.2,1.3c-0.8,0.9-1.4,2-1.3,3.2c0.1,0.4,0.1,0.8,0.2,1.2c0.2,0.8,0.6,1.5,1.2,2c0.3,0.3,0.5,0.7,0.8,1
			c0.7,0.9,2.3,1.4,3.3,1.4c1.2,0,2.5-0.5,3.3-1.4c0.8-0.9,1.4-2.1,1.4-3.3C1052,247.7,1051.6,246.3,1050.7,245.5z"/>
		<path class="st22" d="M1062.3,252.9c-6.2,0-6.2,9.6,0,9.6C1068.4,262.4,1068.5,252.9,1062.3,252.9z"/>
		<path class="st22" d="M945,412c-5.7,0-5.7,8.9,0,8.9C950.7,420.9,950.7,412,945,412z"/>
		<path class="st22" d="M939.7,463.4c-7.7,0-7.7,11.9,0,11.9C947.4,475.3,947.4,463.4,939.7,463.4z"/>
		<path class="st22" d="M1007.6,459.8c-7.7,0-7.7,11.9,0,11.9C1015.3,471.7,1015.3,459.8,1007.6,459.8z"/>
		<path class="st22" d="M1071.1,427.2c-7.7,0-7.7,11.9,0,11.9C1078.8,439.1,1078.8,427.2,1071.1,427.2z"/>
		<path class="st22" d="M985,429.8c-0.6-1.5-2.2-2.7-3.9-2.6c-1.5,0.1-2.9,0.8-3.6,2.1c-0.5,0.8-0.6,1.8-0.5,2.7
			c0.1,0.9,0.5,1.8,1.2,2.4c0.1,0.1,0.2,0.2,0.3,0.2c0.7,0.6,1.7,1.2,2.7,1.1c1.1,0,1.9-0.4,2.7-1.1c0.1-0.1,0.2-0.2,0.3-0.2
			c0.5-0.4,0.9-1.2,1.1-1.9C985.5,431.6,985.4,430.6,985,429.8z"/>
		<path class="st22" d="M983.8,383.9c-2.1,0-2.1,3.2,0,3.2C985.9,387.1,985.9,383.9,983.8,383.9z"/>
		<path class="st22" d="M1072,388.4c-7.7,0-7.7,11.9,0,11.9C1079.7,400.3,1079.7,388.4,1072,388.4z"/>
		<path class="st22" d="M1100.2,423.5c-4.5,0-4.5,7,0,7C1104.7,430.5,1104.7,423.5,1100.2,423.5z"/>
		<path class="st22" d="M1127.8,446.7c-0.9-1.4-2.2-2.6-3.8-2.9c-0.9-0.2-2-0.3-2.9-0.1c-1-1.9-3-3.3-5.8-3.3
			c-8.5,0-8.9,12.4-1.3,13.8c0.1,0.3,0.2,0.5,0.4,0.7c0.9,1.3,2.1,2.5,3.7,2.9c1.6,0.4,3.3,0.3,4.8-0.6c0.9-0.5,1.8-1.1,2.7-1.6
			c1.4-0.8,2.5-2.2,2.9-3.8C1128.8,450.1,1128.6,448.1,1127.8,446.7z"/>
		<path class="st22" d="M1060.5,469.5c-7.7,0-7.7,11.9,0,11.9C1068.2,481.4,1068.2,469.5,1060.5,469.5z"/>
		<path class="st22" d="M1029,425.5c-0.3-1-0.8-1.8-1.5-2.5c-0.7-0.8-1.3-1.6-2-2.4c-0.8-1-2.6-1.6-3.8-1.6
			c-1.2,0.1-2.3,0.4-3.3,1.2c-2.2,1.7-2.7,4.6-1.4,7c0.5,0.9,1,1.9,1.5,2.8c0.7,1.3,2,2.2,3.4,2.6c1.7,0.6,3.6,0,5-1
			c1.2-1,1.9-2.2,2.2-3.7C1029.3,427,1029.2,426.2,1029,425.5z"/>
		<path class="st22" d="M948.2,361.8c-0.5-1.2-1.6-2.4-2.9-2.6c-0.9-0.1-1.8-0.3-2.8-0.4c-1.1-0.2-2.2-0.2-3.1,0.4
			c-0.7,0.5-1.3,1.1-1.6,1.9c-0.7,1.8-0.1,4.1,1.6,5l2.4,1.3c2.4,1.3,5.3,0.4,6.4-2.2C948.7,364.1,948.7,362.9,948.2,361.8z"/>
		<path class="st22" d="M927.3,418.7c-0.3-0.9-0.6-1.8-0.9-2.6c-0.4-1.1-1-2.1-2.1-2.7c-1-0.6-2.4-0.8-3.5-0.5
			c-1.1,0.4-2.2,1-2.7,2.1c-0.6,1-0.8,2.3-0.5,3.5c0.3,0.9,0.6,1.8,0.9,2.6c0.4,1.1,1,2.1,2.1,2.7c1,0.6,2.4,0.8,3.5,0.5
			c1.1-0.4,2.2-1,2.7-2.1C927.4,421.2,927.7,419.9,927.3,418.7z"/>
		<path class="st22" d="M980.3,473.1c-7.7,0-7.7,11.9,0,11.9C987.9,485,988,473.1,980.3,473.1z"/>
	</g>
	<g>
		<g>
			<g>
				<path class="st23" d="M2081.9,471.2c-6.6-1.8-12-4.4-17.1-9c-5.2-4.8-9.5-10.3-13.9-15.7c-5.3-6.5-11.1-9.4-19.5-9.6
					c-6.1-0.1-13.6,0.1-18.3-4.4c-5.2-4.9-4.6-13.9-7.2-20.2c-2.2-5.3-6.1-9.8-10.9-13c-9.5-6.5-22.4-7.4-32.4-1.5
					c-4.4,2.6-0.5,9.3,4,6.9c9.8-5.3,24.4-1.3,29.1,9.2c2.8,6.1,1.8,13.3,4.1,19.6c2.3,6.4,7.2,10.9,13.5,13.4
					c6.4,2.6,12.9,2.5,19.7,3.2c6.5,0.7,10.2,8.1,14.1,12.8c8.3,9.9,19.3,20.6,33.1,20.9C2087.5,484,2088.9,473.2,2081.9,471.2z"/>
				<path class="st23" d="M1731,375.2c-9.9,2.8-18.7,8.9-28.8,11.7c-11.1,3.2-20.9,2.2-32-0.2c-17.6-3.8-38.8-2.3-51.5,12.3
					c-1.9,2.2,0.5,5.5,3.1,4c8.5-4.8,17.1-8.9,27-9.5c10.5-0.6,19.9,3.4,30.1,5.3c9.6,1.8,19.5,1.1,28.8-1.7
					c9.6-2.9,20.3-7.1,28.2-13.4C1740.1,380.4,1735.6,373.9,1731,375.2z"/>
				<path class="st23" d="M1841.1,414.8c-11.2,1.5-15.2,12-17.1,21.9c-3,15.3-4.3,31-4.7,46.5c-0.4,14.4-0.9,27.3-9.4,39.5
					c-7.4,10.6-18.4,17.3-27.3,26.5c-4.8,5,1.3,13.1,7.4,9.6c10.4-5.9,20.1-15,27.6-24.3c8.3-10.4,12.8-21.9,13.7-35.2
					c1-14.6,0.1-29.3,1.4-43.9c0.9-10.3-0.4-28.7,9.9-35.1C1844.8,418.9,1844.1,414.4,1841.1,414.8z"/>
				<path class="st23" d="M1708,230.8c-5-2-10.2-2.2-15.5-3.1c-5.2-0.8-10.4-2-15.4-3.6c-10.5-3.5-17.7-9.8-24-18.7
					c-6.2-8.8-13.6-15.4-22.5-21.4c-9-6-18.6-11-26-19c-3.2-3.5-8.2,1.6-5.2,5.2c7.2,8.4,16.3,14.7,25.2,21.1c4.5,3.3,9,6.8,12.8,11
					c4.3,4.7,7.1,10.5,10.9,15.6c6.7,9,15.8,14.9,26.3,18.6c10.2,3.6,22.8,6.8,33.5,4.9C1714,240.3,1712.4,232.6,1708,230.8z"/>
				<path class="st23" d="M2175.4,272.3c-10.2-0.1-20.3,0.5-30.5-0.7c-9.2-1.1-17.7-4.3-26.5-7c-14.6-4.3-31.9-5.7-43.5,6.1
					c-4.4,4.5,2.3,11.2,6.9,6.9c11.7-11,29.2-3.8,42.1,0.8c16.7,5.9,33.9,7.4,51.6,6.5C2183.4,284.4,2183.5,272.3,2175.4,272.3z"/>
				<path class="st23" d="M1767,113.1c-5.9-4.1-10.3-8.9-14.3-14.9c-3.6-5.3-6.9-11-11.5-15.6c-8.1-8.2-20.9-14.3-31.6-7.2
					c-2.7,1.8-0.3,5.9,2.6,4.4c12.2-6.5,23.8,7.1,29.3,16.4c5.7,9.7,11.1,20.7,22.1,25.1C1768.6,123.3,1770.9,115.8,1767,113.1z"/>
				<path class="st23" d="M1914.3,98.5c-1.9-8.6-5-16.6-6-25.4c-1-8.8-0.7-17.6,0.7-26.3c0.6-4-5.2-5.8-6.1-1.7
					c-2.1,9.5-3.1,19.2-2.6,28.9c0.4,9.4,1.6,19.5,5.8,28C1908.3,106.8,1915.3,103.3,1914.3,98.5z"/>
				<path class="st23" d="M2090.9,89.4c-5.2-3.4-14.1,1.9-18.4,5.1c-6.4,4.8-11.3,11.4-15.2,18.3c-3.9,6.9-7.1,14.2-11.5,20.9
					c-4.6,7-10.6,11-16.7,16.4c-2.3,2-0.5,6,2.5,6c15.2-0.2,23.9-19.5,29.4-31.1c3.3-7.1,6.8-14.3,11.9-20.4
					c2.5-2.9,5.3-5.6,8.7-7.5c3.1-1.7,7.1-1.7,9.7-4C2092.5,92,2092,90.1,2090.9,89.4z"/>
			</g>
			<circle class="st13" cx="1885" cy="262.4" r="135.3"/>
			<path class="st24" d="M1850.9,332.4c-32.1-10.9-61.9-31.6-78.1-61.3c-9.6,12.3-12.5,27.7-12.6,43.6
				c20.4,48.8,68.6,83.1,124.8,83.1c15.2,0,29.9-2.5,43.6-7.2c10.9-13.3,18.9-29.1,22.6-45.9
				C1917.3,345.2,1882.9,343.2,1850.9,332.4z"/>
			<path class="st25" d="M1850.9,332.4c-32.1-10.9-61.9-31.6-78.1-61.3c-9.6,12.3-12.5,27.7-12.6,43.6c5.2,12.3,12.1,23.7,20.5,33.9
				c1.4-2,3.1-3.8,5.1-5.2c4.8-3.4,10.7-4.8,16.6-5.1c7.5-0.3,15.3,1.3,21.4,5.6c6.2,4.3,10.4,11.6,10,19.2
				c10.7-10.3,28.3-12.4,41.2-5.1c2.3,1.3,4.5,3,5.9,5.2c1.7,2.8,2.1,6.2,1.9,9.4c-0.5,9-4.7,17.1-9.8,24.6c4,0.3,8,0.5,12,0.5
				c15.2,0,29.9-2.5,43.6-7.2c10.9-13.3,18.9-29.1,22.6-45.9C1917.3,345.2,1882.9,343.2,1850.9,332.4z"/>
			<path class="st26" d="M1836.4,346.7c14.7,4.8,30.4,7.2,45.7,4.9c8.2-1.3,16.4-4.1,23.5-8.3c-18.7-1.6-37.1-4.9-54.8-10.9
				c-23.9-8.1-46.5-21.7-63.2-40.3c0.1,5.6,0.8,11.1,2.6,16.3C1796.8,328.1,1816.6,340.3,1836.4,346.7z"/>
		</g>
		<path class="st3" d="M2017.9,289.4c-9-12.2-40.7-20.2-54.5-25.7c-18.6-7.5-37.5-14-56.7-19.6c-1.7-0.5-3.5-1-5.2-0.5
			c-2.3,0.7-3.6,2.7-4.3,5.1c-2.5-1.3-5.1-2.6-7.8-3.7c-3-1.3-6.1-2.5-9.1-3.6c0.7-1.7,0.9-3.4,0.1-5c-0.8-1.6-2.3-2.6-3.8-3.6
			c-16.9-10.6-34.4-20.4-52.3-29.3c-13.3-6.6-40.3-25-55.4-23.6c-14.1,1.2-18.5,22.9-19.2,34.6c-1.1,16.2,4,33,15.3,44.9
			c12.6,13.2,30.4,19.9,47.8,25.6c5.6,1.9,11.5,3.7,17.3,2.8c6.3-1,11.7-5.2,16.6-9.4c8.9-7.7,17.3-16.1,24.9-25.1
			c3.8,1.5,7.6,3.1,11.2,4.9c4,2,7.9,4.2,11.7,6.7c-1.3,10.6-1.9,21.3-1.8,32.1c0.1,6.4,0.6,13.2,4,18.6c3.2,5,8.5,8.2,13.6,11.1
			c15.8,9.1,32.6,18.1,50.9,18.7c16.4,0.6,32.4-6.8,43.8-18.4C2013,318.5,2026.3,300.8,2017.9,289.4z"/>
	</g>
</g>
</svg>
